<svg id="Calque_1" data-name="Calque 1" xmlns="http://www.w3.org/2000/svg" xmlns:xlink="http://www.w3.org/1999/xlink" viewBox="0 0 51.13 60"><defs><style>.cls-1{fill:url(#Dégradé_sans_nom);}.cls-2{fill:url(#Dégradé_sans_nom_2);}.cls-3{fill:#fff;}</style><linearGradient id="Dégradé_sans_nom" y1="32" x2="51.13" y2="32" gradientTransform="matrix(1, 0, 0, -1, 0, 62)" gradientUnits="userSpaceOnUse"><stop offset="0" stop-color="#f50"/><stop offset="0.41" stop-color="#f50"/><stop offset="0.64" stop-color="#ff2000"/><stop offset="1" stop-color="#ff2000"/></linearGradient><linearGradient id="Dégradé_sans_nom_2" x1="-42.03" y1="56.58" x2="-41.96" y2="56.58" gradientTransform="matrix(1, 0, 0, -1, 0, 62)" gradientUnits="userSpaceOnUse"><stop offset="0" stop-color="#f50"/><stop offset="1" stop-color="#ff2000"/></linearGradient></defs><title>Plan de travail 1brb</title><path class="cls-1" d="M49.29,14.43l1.34-3a.79.79,0,0,0-.16-.87L46.91,7A5.66,5.66,0,0,0,41,5.57l-1,.33L34.7.07,25.58,0h0L16.43.07,11.09,5.91l-1-.33A5.66,5.66,0,0,0,4.22,7L.66,10.56a.79.79,0,0,0-.16.87l1.34,3L0,19.45,1.19,24,6.62,44.61a10.51,10.51,0,0,0,4.07,5.89s6.59,4.65,13.09,8.87a3.3,3.3,0,0,0,1.79.63,3.3,3.3,0,0,0,1.79-.63c6.5-4.22,13.09-8.87,13.09-8.87a10.51,10.51,0,0,0,4.07-5.89L49.94,24l1.19-4.53Z"/><path class="cls-2" d="M12.65,9.7h0l1,.18,3.45.66,1.51.29a3.92,3.92,0,0,0,1.48-.21l2.72-.88c.53-.17,1.41-.41,1.95-.54a4,4,0,0,1,.77,0,4,4,0,0,1,.77,0c.54.13,1.42.37,1.95.54l2.72.88a3.92,3.92,0,0,0,1.48.21L34,10.54l3.45-.66,1-.18h0C43.28,5.32,46.91,7,46.91,7A5.66,5.66,0,0,0,41,5.57l-1,.33L34.7.07,25.58,0h0L16.43.07,11.09,5.91l-1-.33A5.66,5.66,0,0,0,4.22,7S7.85,5.32,12.65,9.7Z"/><path class="cls-3" d="M33.28,40.81l-3-1.55c-.49-.26-1.32-.64-1.83-.86l-1.62-.67a7.74,7.74,0,0,0-1.07-.39h-.43a7.74,7.74,0,0,0-1.07.39l-1.62.67c-.51.21-1.34.6-1.83.86l-3,1.55a.57.57,0,0,0-.07,1.05l2.58,1.83c.45.32,1.17.88,1.59,1.24l.73.63,1.52,1.33.69.61a1,1,0,0,0,1.34,0l.69-.61,1.52-1.33.73-.63c.42-.36,1.14-.92,1.59-1.24l2.58-1.83a.57.57,0,0,0-.07-1.05Z"/><path class="cls-3" d="M45.48,18.72a13.23,13.23,0,0,0-.79-1.32L43,14.93c-.31-.46-.85-1.19-1.2-1.63l-2.25-2.82a7.88,7.88,0,0,0-.67-.78h0l-1,.18-3.45.66-1.51.29a3.92,3.92,0,0,1-1.48-.21L28.7,9.73c-.53-.17-1.41-.41-1.95-.54a4,4,0,0,0-.77,0,4,4,0,0,0-.77,0c-.54.13-1.42.37-1.95.54l-2.72.88a3.92,3.92,0,0,1-1.48.21l-1.51-.29-3.45-.66-1-.18h0a7.88,7.88,0,0,0-.67.78L10.15,13.3c-.35.43-.89,1.17-1.2,1.63L7.28,17.4a13.23,13.23,0,0,0-.79,1.32,6,6,0,0,0-.23,1.56l.08.27a4,4,0,0,0,.15.51c.35.43.95,1.12,1.33,1.52l5.89,6.26a1.69,1.69,0,0,1,.3,1.67l-1,2.28a3,3,0,0,0,0,1.88l.2.53a5.11,5.11,0,0,0,1.57,2.2l.93.75a1.75,1.75,0,0,0,1.7.2l3.29-1.57a8.36,8.36,0,0,0,1.66-1.11L25,33.31a1.05,1.05,0,0,0,.08-1.49l0,0-5.94-4a1.15,1.15,0,0,1-.36-1.46L21,22a2.25,2.25,0,0,0,.11-1.72,2.63,2.63,0,0,0-1.31-1.19l-7.22-2.73c-.52-.2-.49-.4.06-.45l4.24-.4a6.55,6.55,0,0,1,2,.18l3.69,1A1.13,1.13,0,0,1,23.38,18L21.93,25.9a4.1,4.1,0,0,0-.07,1.34c.06.19.55.44,1.1.55l2.25.48a3.78,3.78,0,0,0,1.55,0L29,27.79c.54-.12,1-.36,1.1-.55A4.1,4.1,0,0,0,30,25.9L28.58,18a1.13,1.13,0,0,1,.79-1.27l3.69-1a6.55,6.55,0,0,1,2-.18l4.24.4c.55.05.58.26.06.45l-7.22,2.73a2.63,2.63,0,0,0-1.31,1.19A2.25,2.25,0,0,0,30.93,22l2.3,4.33a1.15,1.15,0,0,1-.36,1.46l-5.94,4a1.05,1.05,0,0,0,0,1.49l0,0,2.63,2.38a8.36,8.36,0,0,0,1.66,1.11l3.29,1.57a1.75,1.75,0,0,0,1.7-.2l.93-.75a5.11,5.11,0,0,0,1.57-2.2l.2-.53a3,3,0,0,0,0-1.88l-1-2.28a1.69,1.69,0,0,1,.3-1.67l5.89-6.26c.38-.4,1-1.09,1.33-1.52a4,4,0,0,0,.15-.51l.08-.27A6,6,0,0,0,45.48,18.72Z"/></svg>