<svg id="Calque_1" data-name="Calque 1" xmlns="http://www.w3.org/2000/svg" viewBox="0 0 200 200"><defs><style>.cls-1{fill:#fff;}.cls-2{fill:#fef400;}.cls-3{fill:#ca251f;}.cls-4{fill:#ce251e;}.cls-5{fill:#e67817;}.cls-6{fill:#249e38;}.cls-7{fill:#11973c;}.cls-8{fill:#f6c808;}.cls-9{fill:#f7cd07;}.cls-10{fill:#a32825;}.cls-11{fill:#c52620;}.cls-12{fill:#be2621;}.cls-13{fill:#f4bc0a;}.cls-14{fill:#16993b;}.cls-15{fill:#fded01;}.cls-16{fill:#f8d206;}.cls-17{fill:#2ca137;}.cls-18{fill:#0a953d;}.cls-19{fill:#a82724;}.cls-20{fill:#1b9b3a;}.cls-21{fill:#af2723;}.cls-22{fill:#209c39;}.cls-23{fill:#fbe203;}.cls-24{fill:#b42722;}.cls-25{fill:#fadc04;}.cls-26{fill:#c7261f;}.cls-27{fill:#f9d705;}.cls-28{fill:#fce702;}.cls-29{fill:#36a435;}.cls-30{fill:#5ab12e;}.cls-31{fill:#f3b70b;}.cls-32{fill:#4fad30;}.cls-33{fill:#bb2621;}.cls-34{fill:#48ab31;}.cls-35{fill:#b22723;}.cls-36{fill:#3da733;}.cls-37{fill:#54af2f;}.cls-38{fill:#c22620;}.cls-39{fill:#61b42c;}.cls-40{fill:#f5c309;}.cls-41{fill:#2fa236;}.cls-42{fill:#f4c009;}.cls-43{fill:#07933e;}.cls-44{fill:#6cb82a;}.cls-45{fill:#69b72b;}.cls-46{fill:#d4251d;}.cls-47{fill:#33a335;}.cls-48{fill:#43a932;}.cls-49{fill:#b82622;}.cls-50{fill:#9e2826;}.cls-51{fill:#aa2724;}.cls-52{fill:#64b52c;}.cls-53{fill:#03923f;}.cls-54{fill:#d7251d;}.cls-55{fill:#9b2826;}.cls-56{fill:#d1251e;}.cls-57{fill:#eea20f;}.cls-58{fill:#f0aa0d;}.cls-59{fill:#f1b00c;}.cls-60{fill:#ed9b10;}.cls-61{fill:#ec9511;}.cls-62{fill:#982827;}.cls-63{fill:#e87f15;}.cls-64{fill:#40a833;}.cls-65{fill:#e98514;}.cls-66{fill:#952827;}.cls-67{fill:#eb8f12;}.cls-68{fill:#ea8a13;}.cls-69{fill:#9db192;}.cls-70{fill:#f5c109;}.cls-71{fill:#d41c1b;}.cls-72{fill:#6dc381;}.cls-73{fill:#4abb68;}.cls-74{fill:#a7b693;}.cls-75{fill:#c2816f;}.cls-76{fill:#b99981;}.cls-77{fill:#15ad5a;}.cls-78{fill:#38b773;}.cls-79{fill:#149a3e;}.cls-80{fill:#78bd28;}.cls-81{fill:#71ba29;}.cls-82{fill:#bca489;}.cls-83{fill:#c87165;}.cls-84{fill:#c38d7a;}.cls-85{fill:#28b04d;}.cls-86{fill:#59bd84;}.cls-87{fill:#8bc391;}.cls-88{fill:#2fa321;}.cls-89{fill:#7ebd92;}.cls-90{fill:#18489a;}.cls-91{fill:#1259aa;}.cls-92{fill:#0d6ab8;}.cls-93{fill:#1a4195;}.cls-94{fill:#1f3086;}.cls-95{fill:#1453a4;}.cls-96{fill:#1061b0;}.cls-97{fill:#0e65b4;}.cls-98{fill:#164c9f;}.cls-99{fill:#1d368b;}.cls-100{fill:#0b6fbd;}.cls-101{fill:#212c82;}.cls-102{fill:#1b3d91;}.cls-103{fill:#1550a2;}.cls-104{fill:#1c3a8e;}.cls-105{fill:#067dca;}.cls-106{fill:#0581cd;}.cls-107{fill:#22287e;}.cls-108{fill:#0975c3;}.cls-109{fill:#087ac6;}.cls-110{fill:#23247b;}.cls-111{fill:#0485d0;}.cls-112{fill:#0388d3;}.cls-113{fill:#115dad;}.cls-114{fill:#028cd6;}.cls-115{fill:#242178;}.cls-116{fill:#251e76;}.cls-117{fill:#0878c5;}.cls-118{fill:#0a73c0;}.cls-119{fill:#271972;}.cls-120{fill:#0091db;}.cls-121{fill:#72bb18;}.cls-122{fill:#02348f;}</style></defs><title>Plan de travail 1brb</title><ellipse class="cls-1" cx="100.49" cy="104.53" rx="43.95" ry="36.36"/><path class="cls-2" d="M162.35,106c.21.17.19.4.17.63a55,55,0,0,1-1.38,8.91c-.06,0-.16,0-.16,0-.07-.76-.68-.77-1.22-.89-1.38-.29-2.75-.66-4.14-.92-4.36-.81-8.66-1.88-13-2.84-4.75-1.06-9.53-2-14.26-3.12a1.86,1.86,0,0,1-1.17-.53,5.49,5.49,0,0,1,.18-2A28.84,28.84,0,0,0,124.94,89a27.16,27.16,0,0,0-2.76-4.74,1.73,1.73,0,0,1-.38-.71.32.32,0,0,1,0-.18,4.37,4.37,0,0,1,1.62.72c1,.55,2,1.24,3.08,1.77s2,1.15,3,1.6c.75.45,1.51.88,2.26,1.33,1.18.77,2.47,1.37,3.71,2,.82.45,1.62.93,2.43,1.4,2.16,1.27,4.42,2.36,6.57,3.66,1.44.75,2.81,1.63,4.28,2.34s2.77,1.55,4.14,2.36,2.81,1.52,4.2,2.3c1.52,1,3.13,1.78,4.72,2.63C162.07,105.62,162.29,105.72,162.35,106Z"/><path class="cls-3" d="M108.25,37.77c1.8.26,3.59.63,5.36,1.07.07,0,.12.09.18.14s-.09.12-.14.11c-.89-.06-1.38.54-1.93,1.09L71.79,80.11a4.39,4.39,0,0,1-.73.67c-.23.14-.47.24-.57-.15-.05-2.34,0-4.68,0-7a1.28,1.28,0,0,1,.47-.71l34.45-34.45a2.14,2.14,0,0,1,2.31-.67A.84.84,0,0,0,108.25,37.77Z"/><path class="cls-4" d="M108.25,37.77a.53.53,0,0,1-.53.09,2.23,2.23,0,0,0-2.32.81L71.18,72.88c-.18.18-.37.33-.56.5a.77.77,0,0,1-.17-.64c0-2.53,0-5.06,0-7.59a1,1,0,0,1,.33-.59c.73-.77,1.46-1.55,2.21-2.28,1.25-1.22,2.47-2.47,3.71-3.7,1-1,2-1.92,2.94-2.89L97.08,38.27c.16-.16.34-.31.49-.48a2.51,2.51,0,0,1,2-.72c1.18.18,2.36.06,3.54.18A38.5,38.5,0,0,1,108.25,37.77Z"/><path class="cls-5" d="M113.75,163.51a24.24,24.24,0,0,1-4.11.93,64.45,64.45,0,0,1-10.67,1,63.73,63.73,0,0,1-22.2-3.8,67.83,67.83,0,0,1-12.31-6c-.17-.11-.33-.24-.5-.37s.18-.31.33-.4c1-.68,2.11-1.29,3.17-1.93a.81.81,0,0,1,.65-.14,5.26,5.26,0,0,0,1.25.39c5.48,1.14,10.93,2.43,16.4,3.62,4.21.92,8.43,1.79,12.62,2.77,2.51.59,5,1.1,7.56,1.65,2.3.5,4.58,1,6.89,1.51a2.22,2.22,0,0,1,.83.27C113.84,163.12,114,163.27,113.75,163.51Z"/><path class="cls-6" d="M35.24,111.88a14.26,14.26,0,0,1-.38-2.85,1.46,1.46,0,0,1,.53-1.2l34-34c.21-.21.41-.58.76-.43s.2.55.21.85a7.66,7.66,0,0,0,.1,1.37c0,.72,0,1.44,0,2.16s0,1.22,0,1.83a.31.31,0,0,1-.21.28,2.64,2.64,0,0,0-1,.75L44.47,105.43,37,112.9a5.77,5.77,0,0,1-.9.77c-.3.2-.49.28-.56-.23A12,12,0,0,0,35.24,111.88Z"/><path class="cls-7" d="M34.86,93.2c0-.11-.17-.21,0-.34a19.09,19.09,0,0,0,.42-2.41,38.46,38.46,0,0,1,1.37-6.12c.28.29.07.59,0,.88s-.11.44-.17.74a2.38,2.38,0,0,0,.52-.46L68.87,53.61a4.34,4.34,0,0,1,.84-.75c.39-.23.52-.16.56.29a5.41,5.41,0,0,0,.12,1.36,7,7,0,0,1,0,.92,12.2,12.2,0,0,0,.08,2.2c.08.53,0,1.06,0,1.58,0,.3,0,.6,0,.9s0,.46,0,.69q0,1.77,0,3.55c-.08.86,0,1.72-.05,2.58,0,.23.05.47-.1.69a.16.16,0,0,1-.21,0,2,2,0,0,1-.14-1.09c0-.88,0-1.77,0-2.65.06-1.64,0-3.28,0-5-.3,0-.42.23-.57.38-1,1.08-2.12,2.12-3.17,3.18Q51.16,77.6,36,92.79a6.38,6.38,0,0,1-.73.68c-.11.08-.24.24-.38.14S34.82,93.34,34.86,93.2Z"/><path class="cls-8" d="M146.61,143.74a38,38,0,0,1-4,4.12c-.29-.18,0-.33.05-.43.27-.35.12-.46-.23-.53-.82-.17-1.61-.43-2.44-.55-2.78-.43-5.5-1.18-8.24-1.78s-5.71-1.4-8.6-1.91c-3.49-.62-6.9-1.58-10.34-2.38-3.08-.72-6.19-1.32-9.28-2-1.18-.25-2.35-.58-3.53-.8s-2.55-.41-3.8-.74c-.31-.08-.68-.09-.78-.51s.29-.49.54-.64c1.29-.78,2.59-1.55,3.87-2.35a.86.86,0,0,1,.64-.18c2.62.71,5.27,1.25,7.92,1.79s5.34,1.1,8,1.84c1.18.33,2.41.45,3.61.72,7,1.53,14,3.06,21,4.66,1.48.34,3,.57,4.47.9a4.86,4.86,0,0,1,.84.23C146.51,143.29,146.73,143.41,146.61,143.74Z"/><path class="cls-9" d="M146.61,143.74c0-.41-.4-.42-.68-.48-1.35-.3-2.7-.64-4.07-.85s-2.83-.61-4.24-.92c-4-.87-7.93-1.87-11.93-2.67-2.56-.51-5.08-1.15-7.64-1.65-3.19-.62-6.3-1.54-9.49-2.11-2.49-.45-4.93-1.08-7.4-1.58a1.39,1.39,0,0,1-.79-.34c0-.24.22-.33.4-.45,1.36-.86,2.76-1.68,4.14-2.51.21-.13.41-.29.69-.21,1.85.51,3.72.89,5.6,1.26a39.36,39.36,0,0,1,5,1.18c.55.19,1.13.28,1.7.41,2.54.59,5.07,1.21,7.62,1.71,3.6.71,7.15,1.63,10.74,2.33,4.13.81,8.22,1.76,12.35,2.58l.42.11c.36.11.51.33.38.7A28.53,28.53,0,0,1,146.61,143.74Z"/><path class="cls-10" d="M144.49,96,140,93.52l-2.13-1.16a1.06,1.06,0,0,0-.16-.19c-.61-.47-.62-.52-.06-1.09L155.1,73.63a4.83,4.83,0,0,1,1-.76A49.29,49.29,0,0,1,159,79.6c.18.5.33,1,.49,1.52a1.67,1.67,0,0,0-1,.54q-6.7,6.72-13.42,13.42A2.74,2.74,0,0,0,144.49,96Z"/><path class="cls-11" d="M116.87,39.74a30.1,30.1,0,0,1,5,1.75c0,.05-.09.11-.14.11-.9-.09-1.38.54-1.92,1.08L90,72.55c-.25.25-.63.44-.58.9a.54.54,0,0,1-.35.25,31.27,31.27,0,0,0-7,3.54,1.08,1.08,0,0,1-.28.13,1,1,0,0,0-.56.33,2,2,0,0,1-.54.41,3.62,3.62,0,0,0-1.58,1.32.7.7,0,0,1-.53.48c-.35,0-.36.35-.54.53a1.57,1.57,0,0,1-.43.43A8.34,8.34,0,0,0,75.71,83a3.66,3.66,0,0,1-1,1.34c-.25.07-.29.3-.37.5a1.68,1.68,0,0,1-.29.42A5.24,5.24,0,0,0,73,87.13a4.47,4.47,0,0,1-.55,1.25c-.51,1-.9,2.06-1.32,3.1-.06.16-.07.57-.45.27-.14-1.68-.07-3.36,0-5a.7.7,0,0,1,.26-.41c1-.81,1.8-1.73,2.68-2.62l42.9-42.89a5.45,5.45,0,0,1,.74-.68C117.13,39.95,116.78,40,116.87,39.74Z"/><path class="cls-12" d="M127.28,43.86a42.53,42.53,0,0,1,6.47,3.76c-.22.17-.4,0-.57-.08-.32-.19-.65-.38-1-.58-.7-.46-.85-.45-1.48.08-.17.15-.33.32-.49.48l-24,24a6.89,6.89,0,0,0-.67.74,1.23,1.23,0,0,1-.75.52c-1.39-.2-2.78-.37-4.16-.59a2.51,2.51,0,0,0-.64-.17l-.12,0c-.27-.12-.72.08-.83-.28s.3-.6.54-.84l26.47-26.48C126.44,44,126.73,43.65,127.28,43.86Z"/><path class="cls-13" d="M136.86,152.7a30.12,30.12,0,0,1-3.6,2.46c-1.75-.35-3.48-.82-5.24-1.16-3.76-.72-7.49-1.62-11.22-2.45q-11-2.45-22.07-4.87c-3.47-.77-6.95-1.55-10.43-2.29-.46-.1-1-.06-1.26-.64,0-.31.23-.42.43-.55,1.1-.72,2.24-1.36,3.36-2,.21-.1.39-.26.65-.19a22.55,22.55,0,0,0,3.82.94c5.94,1.18,11.82,2.66,17.75,3.9,1.63.34,3.27.64,4.89,1,3.38.83,6.75,1.67,10.16,2.38,4,.81,7.91,1.67,11.83,2.61a4.16,4.16,0,0,1,.66.19C136.9,152.15,137.06,152.35,136.86,152.7Z"/><path class="cls-14" d="M34.86,93.2c.06.08-.09.4.2.21a3.69,3.69,0,0,0,.61-.53l27.6-27.59c1.2-1.2,2.37-2.44,3.62-3.59,1-.9,1.82-1.93,2.8-2.82.13-.12.25-.37.43-.3s.12.37.12.56c0,1.5,0,3,0,4.5-.25.3-.55.57-.82.85L35.52,98.37c-.28.28-.53.83-1,.63s-.08-.69-.11-1a1,1,0,0,1,0-.49A21.48,21.48,0,0,1,34.86,93.2Z"/><path class="cls-15" d="M127.26,107.12a13.12,13.12,0,0,0,3.11.81c2.19.52,4.38,1.11,6.59,1.51,4.8.88,9.52,2.13,14.29,3.14,3.15.67,6.32,1.29,9.46,2,.37.09.46.17.32.51a.3.3,0,0,0,.11.39,25.05,25.05,0,0,1-1,3.75.24.24,0,0,0-.09.15c-.19.74-.18.69-.88.49-1.48-.43-3-.71-4.5-1.06-6.49-1.51-13-2.77-19.51-4.32-2.94-.7-5.92-1.2-8.85-1.91-.27-.07-.6-.06-.69-.43a.42.42,0,0,1,0-.19c.51-1.52,1-3,1.4-4.59A.42.42,0,0,1,127.26,107.12Z"/><path class="cls-16" d="M149.47,140.24c0-.46-.31-.54-.66-.61-3-.62-5.95-1.26-8.92-1.88-4.17-.86-8.32-1.85-12.49-2.69-3.61-.72-7.2-1.55-10.78-2.38-1.63-.38-3.25-.83-4.88-1.16-1.93-.39-3.85-.78-5.76-1.25-.19,0-.37-.05-.47-.25.13-.36.49-.45.76-.64a20.62,20.62,0,0,1,2.39-.87c.91-.33,1.8-.73,2.69-1.12.18-.08.36-.23.58-.15a7.05,7.05,0,0,0,2,.44c4.63,1,9.24,2.16,13.88,3.11,6.15,1.26,12.25,2.78,18.4,4.05,1.69.35,3.37.73,5.06,1.09.37.08.89.12.76.76a34.48,34.48,0,0,1-2,2.9C149.85,139.81,149.66,140,149.47,140.24Z"/><path class="cls-17" d="M35.24,111.88a4.42,4.42,0,0,1,.37,1.48c.08.39.14.41.44.17a38.34,38.34,0,0,0,3.38-3.32c.3-.31.64-.58.95-.89q14.54-14.57,29.1-29.12c.25-.25.48-.54.9-.46a.37.37,0,0,1,.12.29,8,8,0,0,0,.13,1.7,5.89,5.89,0,0,1,.06.87,2.93,2.93,0,0,1,0,.44c0,.41,0,.83,0,1.24,0,1,0,2-.05,2.93q0,1,0,2.08a1.06,1.06,0,0,1-.08.55.15.15,0,0,1-.2,0,2.66,2.66,0,0,1-.14-1.34c0-1.16,0-2.33,0-3.54-.33,0-.46.28-.62.44l-31.9,31.9c-.18.18-.35.36-.54.52s-.49.25-.62-.19c-.26-.88-.4-1.79-.7-2.66A23.47,23.47,0,0,1,35.24,111.88Z"/><path class="cls-18" d="M70.24,54.37c-.27-.48,0-1-.21-1.72L36.27,86.42c0-.81.39-1.41.34-2.08a45.34,45.34,0,0,1,2-6.13c.33,0,.52-.24.72-.45,1.13-1.22,2.43-2.27,3.54-3.51,1.24-1.4,2.65-2.65,4-4,1.93-1.89,3.71-3.93,5.77-5.69.6-.52,1-1.19,1.61-1.74,1.49-1.42,2.89-2.94,4.39-4.34,1.66-1.54,3.07-3.33,4.83-4.78a21.79,21.79,0,0,0,2-2.12c.84-.9,1.83-1.64,2.67-2.54a17.39,17.39,0,0,1,1.39-1.51c.16-.13.31-.32.54-.23s.21.34.21.55c0,1.25,0,2.5,0,3.75a3,3,0,0,0,.11,1,9.23,9.23,0,0,1,0,1.14C70.41,54,70.44,54.21,70.24,54.37Z"/><path class="cls-19" d="M156.12,72.88c0,.11-.07.26-.15.31a14.36,14.36,0,0,0-2.73,2.53Q145.55,83.35,137.91,91l-.26.26c-.27.27-.53.53,0,.75a.32.32,0,0,1,.18.31c-1.31-.74-2.61-1.51-4-2.19a9.37,9.37,0,0,1-2.18-1.3c-.16-.24,0-.43.12-.61s.32-.33.48-.49l19.54-19.54.18-.18c.81-.8.86-.8,1.47.16a1.31,1.31,0,0,0,.23.29A35.29,35.29,0,0,1,156.12,72.88Z"/><path class="cls-20" d="M34.49,97.45c0,.37,0,.75,0,1.12,0,.12,0,.27.09.34s.25-.09.35-.18.24-.23.36-.35L69.56,64.13c.2-.2.35-.48.68-.5q0,2,0,4a.81.81,0,0,1,.12.76c-.16.39-.55.56-.82.83L35.34,103.43a1.57,1.57,0,0,0-.58,1.19c0,.16,0,.4-.27.38v-.2c-.14-.47.06-1-.11-1.42A41.76,41.76,0,0,1,34.49,97.45Z"/><path class="cls-21" d="M126.5,86a6,6,0,0,1-1.42-.75c-1.07-.6-2.12-1.24-3.19-1.86-.12-.24,0-.39.17-.56a3.41,3.41,0,0,1,.34-.36L145.55,59.3c.33-.33.65-.76,1.22-.44a41.69,41.69,0,0,1,3.78,4.74c-.3.15-.41-.11-.54-.27-.26-.33-.51-.3-.79,0l-.44.44-22,22A1.44,1.44,0,0,1,126.5,86Z"/><path class="cls-22" d="M34.49,105s.09-.06.08-.09c-.13-1,.6-1.53,1.2-2.12L69.42,69.14a2.36,2.36,0,0,1,.83-.64c.2.18.16.43.18.66,0,1.12-.07,2.23.06,3.35,0,.77,0,1.55,0,2.32,0,.19,0,.4-.14.54a5.09,5.09,0,0,1-.11-1.59c0-.12,0-.27-.1-.33s-.22.07-.31.15l-.35.35L36,107.46A3,3,0,0,0,34.86,109h0c-.14-.33.06-.7-.13-1l0,0,0,0c-.13-.3.05-.63-.12-.92A7.92,7.92,0,0,1,34.49,105Z"/><path class="cls-23" d="M158.49,124.13a21.44,21.44,0,0,1-1.35,3.25c-.65,1.34-.64,1.3-2.14,1-6.44-1.28-12.79-2.91-19.22-4.22-4.73-1-9.43-2.12-14.14-3.15-.49-.11-.94.07-1.4,0-.16-.27.05-.43.19-.6a41,41,0,0,0,2.77-3.7c.12-.19.22-.42.52-.37,5.27,1,10.47,2.39,15.74,3.47,5.71,1.17,11.38,2.51,17.07,3.79a11.61,11.61,0,0,0,1.23.22A1,1,0,0,1,158.49,124.13Z"/><path class="cls-24" d="M140.15,52.49c.17,0,.27.08.38.17a32.19,32.19,0,0,1,3.12,2.92.17.17,0,0,1-.05.22,26.66,26.66,0,0,0-2.7,2.59q-10.49,10.47-21,21c-.83.83-.76.66,0,1.43.16.17.56.31.22.67a.72.72,0,0,1-.52-.31,35.18,35.18,0,0,0-4-3.49,1.14,1.14,0,0,1-.33-.37.59.59,0,0,1,.16-.63c.11-.13.23-.24.35-.36l23.1-23.1a3.82,3.82,0,0,1,.66-.57C139.75,52.5,139.92,52.35,140.15,52.49Z"/><path class="cls-25" d="M120.25,120.87c2.33-.17,4.46.76,6.68,1.19,2.66.52,5.27,1.29,7.94,1.77,3.83.69,7.59,1.7,11.4,2.5,1.86.39,3.7.92,5.57,1.24,1.49.26,3,.59,4.42.94.26.06.27-.1.35-.23.19-.29.24-.67.54-.9a40.25,40.25,0,0,1-2.78,5.49c-2.95-1-6-1.34-9.05-2.05-3.83-.9-7.66-1.82-11.51-2.6-4.27-.86-8.5-1.87-12.75-2.79-1.16-.25-2.31-.55-3.47-.8a1.18,1.18,0,0,1-.71-.36c-.14-.33.11-.49.3-.68a27.84,27.84,0,0,0,2.61-2.5C119.89,121,120,120.8,120.25,120.87Z"/><path class="cls-26" d="M70.52,83v-.39a3.35,3.35,0,0,0,0-1.1.71.71,0,0,1,.11-.64,2.38,2.38,0,0,0,.83-.64Q91.65,60,111.83,39.84a2.22,2.22,0,0,1,2-.85,8,8,0,0,1,2.21.54c0,.2-.12.3-.23.41-4.79,4.69-9.5,9.47-14.25,14.2q-9.13,9.11-18.25,18.25Q77.45,78.22,71.6,84a1.91,1.91,0,0,0-.71,1.69,1,1,0,0,1-.14.78v5.4c0,.11.1.24-.11.23A3.59,3.59,0,0,1,70.5,90c0-.22.06-.44.06-.67q0-1.06,0-2.12,0-1.46,0-2.92A9.1,9.1,0,0,0,70.52,83Z"/><path class="cls-27" d="M116.86,124.09c.53.53,1.27.47,1.91.63,2.65.64,5.32,1.22,8,1.81,3.84.84,7.68,1.65,11.52,2.49,2.59.57,5.16,1.19,7.74,1.76,2.14.47,4.29.87,6.43,1.37.65.15,1.43.08,1.91.73a28.37,28.37,0,0,1-2.35,3.81c0-.43-.37-.48-.71-.57-2.5-.65-5.06-1-7.58-1.61l-8.48-1.9c-1.71-.39-3.41-.88-5.14-1.19-4.83-.86-9.56-2.16-14.36-3.13a16.24,16.24,0,0,0-2.92-.55,1.33,1.33,0,0,1-1-.44c0-.23.2-.3.36-.39a32.17,32.17,0,0,0,4-2.6C116.43,124.17,116.6,124,116.86,124.09Z"/><path class="cls-28" d="M158.49,124.13c-2.84-.44-5.62-1.2-8.42-1.83s-5.63-1.35-8.47-1.88c-3.74-.7-7.42-1.66-11.15-2.43-2.16-.45-4.28-1.11-6.49-1.36a.42.42,0,0,1-.34-.23c-.12-.2,0-.37.08-.52a33.78,33.78,0,0,0,1.68-3.38c.07-.16.1-.38.35-.37.31.5.88.39,1.32.48,4.28.86,8.53,1.82,12.79,2.79,2.92.67,5.85,1.29,8.79,1.88,2.62.53,5.21,1.16,7.8,1.78a12.5,12.5,0,0,1,3.16.85c.15.08.21,0,.28-.11s.06-.42.27-.54A36.38,36.38,0,0,1,158.49,124.13Z"/><path class="cls-29" d="M39.6,126.63a28.83,28.83,0,0,1-1.27-3.12c1.51-1.43,2.93-2.95,4.4-4.42q13.33-13.27,26.61-26.59a5.65,5.65,0,0,1,.54-.52c.18-.14.37-.32.58,0a1.7,1.7,0,0,1,0,.86,1.92,1.92,0,0,0-.16,1c-.33,1.51-.54,3-.84,4.56a.37.37,0,0,1-.13.14,1.23,1.23,0,0,0-.89.51l-8.17,8.17L41.14,126.39l-.4.4C40.1,127.41,40,127.39,39.6,126.63Z"/><path class="cls-30" d="M55,148.38a32,32,0,0,1-3.25-3.25,36,36,0,0,0,2.65-2.55l21.32-21.32c.3-.3.57-.71,1.1-.46a1.54,1.54,0,0,1,.63.5c.75.86,1.71,1.5,2.42,2.39.13.28-.07.42-.23.58Q67.82,136.06,56,147.87C55.75,148.14,55.52,148.57,55,148.38Z"/><path class="cls-31" d="M83.13,143.63c0,.41.38.42.64.47,3.57.71,7.08,1.69,10.68,2.31,1.85.32,3.68.81,5.51,1.23,3.21.73,6.4,1.57,9.63,2.18,3.62.68,7.18,1.62,10.79,2.34,2.11.42,4.19,1,6.3,1.41s4,.86,6,1.3a.8.8,0,0,1,.59.3,36,36,0,0,1-3.64,2.22l-.62.29a.66.66,0,0,0-.6-.46c-3.94-.79-7.83-1.81-11.77-2.6-3.35-.67-6.69-1.38-10-2.16-4.72-1.1-9.48-2.06-14.21-3.12-4.21-.94-8.4-1.91-12.62-2.8-.27-.06-.67,0-.69-.46a.87.87,0,0,1,.45-.49c1-.61,2-1.19,3-1.81A.58.58,0,0,1,83.13,143.63Z"/><path class="cls-32" d="M49.2,142.27a32.33,32.33,0,0,1-3-3.89,1.49,1.49,0,0,0,1.22-.58Q59.2,126,71,114.24c.3-.3.56-.71,1.1-.53a4,4,0,0,1,.76,1.26c.47.83,1,1.63,1.5,2.43.11.17.27.32.24.56,0,.08-.09.2-.15.16-.46-.32-.69,0-1,.3q-11.67,11.68-23.36,23.35C49.87,142,49.69,142.45,49.2,142.27Z"/><path class="cls-33" d="M105,72.64c.34-.36.66-.74,1-1.09l24.3-24.31.22-.22c.78-.74.91-.74,1.81-.18a4.86,4.86,0,0,0,1.41.77l1.68,1.1a5.45,5.45,0,0,0-1.87,1.49q-11.48,11.48-23,23c-.33.33-.51.79-.92,1.05-1.32-.35-2.58-.89-3.91-1.21C105.48,72.95,105.16,72.95,105,72.64Z"/><path class="cls-34" d="M72,113.71a1.39,1.39,0,0,0-.79.5L47.36,138.08c-.32.32-.62.72-1.14.3A29,29,0,0,1,44,135a.9.9,0,0,0,.81-.31c.71-.76,1.51-1.43,2.15-2.26a15.91,15.91,0,0,1,1.51-1.4c1.41-1.41,2.81-2.83,4.21-4.25,1.85-1.88,3.71-3.76,5.59-5.61,3.79-3.72,7.5-7.51,11.29-11.23.64-.62.79-.58,1.06.29,0,0,.1,0,.15,0a5.76,5.76,0,0,1,.7,1.57c.19.43.33.89.54,1.31A.52.52,0,0,1,72,113.71Z"/><path class="cls-35" d="M120.1,81.38c0-.48-.44-.63-.7-.89s-.36-.48,0-.83q11.78-11.75,23.53-23.53c.22-.22.51-.33.73-.55l.24.23c.1.17.27.28.38.44a18.44,18.44,0,0,1,2.5,2.61,1.14,1.14,0,0,0-1,.4Q134.08,71,122.35,82.71a1.62,1.62,0,0,0-.46.66l0,.06c-.62-.17-.83-.73-1.16-1.19.08-.28-.22-.26-.32-.39S120.06,81.62,120.1,81.38Z"/><path class="cls-36" d="M39.6,126.63c.49.59.49.59,1.08,0Q54.6,112.72,68.52,98.81c.18-.18.32-.62.73-.31l0,.1a17.77,17.77,0,0,0,.11,2.16,2.53,2.53,0,0,1,0,.93c-.16.43,0,.89-.17,1.32,0,0,.09-.1.16,0,.32.44.14.95.18,1.43a.59.59,0,0,1-.19.46.13.13,0,0,1-.17-.05c-.14-.27-.06-.57-.14-.86s-.19-.31-.38-.12l-.31.31c-1.59,1.59-3.15,3.22-4.78,4.76s-3.24,3.4-5,4.95c-.67.58-1.18,1.34-1.85,1.95-1.43,1.3-2.69,2.79-4.12,4.09-1.7,1.54-3.11,3.36-4.89,4.81a24.53,24.53,0,0,0-1.88,2,43.8,43.8,0,0,0-3.37,3.34,1.66,1.66,0,0,1-.93.68C40.87,129.38,40.12,128.06,39.6,126.63Z"/><path class="cls-37" d="M49.2,142.27c.36,0,.53-.31.74-.53L73.3,118.38c.62-.62.62-.62,1.21-.41.23,0,.32.15.43.29.56.71,1.08,1.45,1.7,2.12.11.12.22.26.13.44a1.18,1.18,0,0,0-.87.45q-11.61,11.63-23.24,23.25a1.54,1.54,0,0,1-.92.6A22.77,22.77,0,0,1,49.2,142.27Z"/><path class="cls-38" d="M127.28,43.86a1,1,0,0,0-.82.35l-27,27c-.12.12-.37.22-.27.44s.3.08.46.09.25,0,.34.12c-.21.23-.5.17-.76.18-.91,0-1.83-.06-2.74.06l-.21,0a8.39,8.39,0,0,0-1.22.08l-.2,0a1.07,1.07,0,0,1-.57-.06c-.26-.23-.13-.44,0-.65a4.07,4.07,0,0,1,.43-.45Q108.88,57,123,42.84c.39-.39.73-.66,1.28-.36h0c.79.46,1.67.74,2.48,1.16C126.91,43.75,127.15,43.67,127.28,43.86Z"/><path class="cls-39" d="M55,148.38a1.54,1.54,0,0,0,.92-.6q11.66-11.66,23.31-23.33c.21-.21.62-.3.54-.74a.36.36,0,0,1,.4.08c.84.68,1.73,1.3,2.63,1.9A.63.63,0,0,1,83,126c0,.29-.19.45-.36.62-4.12,4.13-8.23,8.27-12.38,12.36-1,1-1.87,2-2.9,2.92-1.78,1.57-3.27,3.43-5.08,5-.77.66-1.36,1.51-2.11,2.21-.47.44-.93.89-1.43,1.31-.66.56-.65.58-1.31.13A21.48,21.48,0,0,1,55,148.38Z"/><path class="cls-40" d="M95.5,136.14c0,.3.24.34.48.38,2,.4,4,.8,6,1.23,4.38.95,8.78,1.84,13.14,2.9,2.31.56,4.61,1.21,6.94,1.63,3.06.55,6.05,1.35,9.09,2,2.27.46,4.52,1,6.77,1.53,1.51.35,3.06.5,4.55.95.25.08.62,0,.7.28s-.29.36-.43.56-.24.13-.13.29a29.64,29.64,0,0,1-3.36,3,.21.21,0,0,1-.05-.18,1.13,1.13,0,0,1,.33-.47c.22-.2.45-.37.66-.57s.29-.47-.15-.58q-1.15-.29-2.31-.54c-2.79-.58-5.55-1.32-8.35-1.86-5.64-1.09-11.2-2.56-16.84-3.68s-11.21-2.5-16.82-3.73c-.87-.19-1.77-.25-2.64-.49-.34-.09-.71-.13-.89-.5s.13-.38.3-.49c.83-.51,1.64-1.05,2.49-1.54C95.15,136.1,95.31,136,95.5,136.14Z"/><path class="cls-41" d="M35.84,115a11.22,11.22,0,0,1,.67,2.29c.07.21,0,.53.27.59s.36-.23.52-.38L69.54,85.27c.09-.09.17-.18.27-.26s.25-.37.43-.31.12.36.13.56c0,1,0,2.08,0,3.12-.26.3-.55.57-.83.85l-30,30a18.37,18.37,0,0,0-1.81,1.72.22.22,0,0,1-.28.08A41.87,41.87,0,0,1,35.84,115Z"/><path class="cls-42" d="M139.5,150.38l-.26.38a4.77,4.77,0,0,0-.73.68,11.11,11.11,0,0,1-1.65,1.27c0-.36-.17-.51-.53-.59-3.23-.72-6.44-1.54-9.68-2.19-3.47-.69-6.93-1.43-10.35-2.31-2-.52-4.05-1-6.1-1.4-2.69-.5-5.33-1.18-8-1.72s-5.56-1.3-8.36-1.86c-1.9-.39-3.79-.83-5.7-1.22a2.14,2.14,0,0,1-.77-.36c0-.24.23-.34.39-.45.69-.5,1.45-.87,2.18-1.3a.56.56,0,0,1,.53-.06,3.57,3.57,0,0,0,.88.31c4,.87,8,1.89,12,2.68,4.58.89,9.1,2.05,13.67,3,6.61,1.36,13.18,2.87,19.76,4.39.69.16,1.41.15,2.09.37C139.13,150,139.45,150,139.5,150.38Z"/><path class="cls-43" d="M70.23,52.5c-.18-.2-.1-.44-.11-.66,0-1.33,0-2.66,0-4,0-.14.07-.32-.1-.39s-.25.1-.35.19c-.44.41-.81.89-1.22,1.32a22,22,0,0,1-1.93,1.85,16.36,16.36,0,0,0-1.81,1.89c-.67.77-1.49,1.39-2.19,2.12-1.49,1.53-3.07,3-4.53,4.54-1,1.11-2.2,2.08-3.22,3.2-1.35,1.47-2.88,2.76-4.22,4.23s-2.62,2.43-3.79,3.78-2.77,2.58-4,4c-1.1,1.28-2.45,2.3-3.58,3.55-.12.14-.31.56-.57.09,0-.12,0-.26.1-.35s.17-.42.29-.62h0a4.93,4.93,0,0,0,.37-.91l.07-.23c.24-.14.19-.43.31-.63a32.19,32.19,0,0,1,2-4.13,1.16,1.16,0,0,0,.63-.39c.89-1.17,2.11-2,3.09-3.09,1.17-1.28,2.46-2.43,3.65-3.67s2.62-2.55,3.88-3.88,2.4-2.31,3.53-3.53,2.59-2.48,3.8-3.79,2.68-2.56,3.92-3.93,2.59-2.53,3.86-3.82c.22-.22.16-.34,0-.52a10.44,10.44,0,0,1,2.12-1.09c.23.21.18.49.18.75,0,.91,0,1.81,0,2.72,0,1.29,0,2.57,0,3.86C70.35,51.48,70.59,52,70.23,52.5Z"/><path class="cls-44" d="M68,152.86c-1.38.72-2.7,1.56-4,2.41a10.07,10.07,0,0,1-1.49-1,3.2,3.2,0,0,0,1-.78l24-24a3,3,0,0,1,.49-.47.67.67,0,0,0,.27-.49.75.75,0,0,1,.54,0c1.09.37,2.2.71,3.3,1.06.22.19,0,.34-.06.48a5.6,5.6,0,0,1-.52.54L73.56,148.6a2.23,2.23,0,0,0-.82,1.29.79.79,0,0,1-.41.43,1.55,1.55,0,0,0-.43.36,4.42,4.42,0,0,1-.44.2c-.14.07-.27.17-.41.25a5.5,5.5,0,0,0-.78.46c-.37.19-.72.43-1.09.64A3.66,3.66,0,0,1,68,152.86Z"/><path class="cls-38" d="M124.28,42.48c-.52-.18-.83.13-1.16.46L94.71,71.36c-.21.21-.51.39-.46.77a.29.29,0,0,1-.15.2l-.17.05a1.92,1.92,0,0,0-.6.13,28.22,28.22,0,0,0-3.32.84.86.86,0,0,1-.61,0c-.15,0-.26-.08-.15-.23a4.47,4.47,0,0,1,.48-.57Q104.85,57.46,120,42.32a2.13,2.13,0,0,1,1.94-.83A11.7,11.7,0,0,1,124.28,42.48Z"/><path class="cls-45" d="M88.14,128.6c0,.13.26.24,0,.41a2.36,2.36,0,0,0-.27.26L63.26,153.93c-.23.23-.43.46-.79.33A16.41,16.41,0,0,1,60,152.5a7.21,7.21,0,0,1,.83-.84q11.72-11.73,23.43-23.46c.58-.58,1.09-1,1.9-.45.07,0,.16,0,.25,0a.78.78,0,0,1,.55.22,1.11,1.11,0,0,0,.49.26l.15.06a3.85,3.85,0,0,0,.44.19A.38.38,0,0,1,88.14,128.6Z"/><path class="cls-46" d="M90.25,37.63a2.51,2.51,0,0,1,1.1-.14c.18-.06.41-.14.51,0s-.1.34-.24.45a13.28,13.28,0,0,0-1.18,1.12L71.7,57.82c-.28.28-.56.56-.82.86-.1.12-.21.36-.44.14-.09-2-.06-4.07-.08-6.11a1.18,1.18,0,0,1,.4-.92q6.29-6.24,12.52-12.53A3,3,0,0,1,85,38.59C86.72,38.2,88.49,37.92,90.25,37.63Z"/><path class="cls-47" d="M37.5,121,65,93.56l4.77-4.77c.17-.17.31-.41.6-.41v1.5a3.44,3.44,0,0,1,0,2c-.34,0-.49.3-.68.5l-27,27-3.74,3.74c-.17.17-.32.39-.61.39A18.43,18.43,0,0,1,37.5,121Z"/><path class="cls-48" d="M70.64,110.21l-.1.05c-.15-.18-.07-.56-.35-.6s-.47.3-.67.5L59.69,120l-3.87,3.87-3.34,3.34c-1.32,1.32-2.59,2.69-4,3.94s-2.37,2.5-3.63,3.67c-.27.25-.52.5-.89.18a18.24,18.24,0,0,1-1.61-2.75,1,1,0,0,0,1-.39Q56,119.22,68.63,106.6c.24-.24.42-.67.91-.49a.94.94,0,0,1,.17.72c0,.17.13-.08.17,0a23.6,23.6,0,0,1,.84,3A.33.33,0,0,1,70.64,110.21Z"/><path class="cls-49" d="M109.72,74.14a1.74,1.74,0,0,1,.45-.75q12.07-12.05,24.12-24.12a1.49,1.49,0,0,1,1.14-.54,11.55,11.55,0,0,1,2.45,1.9,2.21,2.21,0,0,0-.94.58c-4,4-8,7.87-11.86,11.9S117.2,71,113.29,75a2.06,2.06,0,0,1-.71.6,8.62,8.62,0,0,1-2.14-.94C110.17,74.53,109.81,74.52,109.72,74.14Z"/><path class="cls-49" d="M112.61,75.54A1.53,1.53,0,0,1,113,75l3.09-3.09,20.76-20.88c.26-.26.49-.68,1-.43.17,0,.24.17.37.24s.32.27.5.39a9.58,9.58,0,0,1,1.4,1.24,2,2,0,0,0-.92.6L115.71,76.6c-.18.18-.37.34-.33.63a.31.31,0,0,1-.34,0c-.74-.45-1.47-.91-2.2-1.37A.37.37,0,0,1,112.61,75.54Z"/><path class="cls-50" d="M144.49,96a.68.68,0,0,1,.23-.81q6.94-6.91,13.86-13.85c.27-.27.52-.5.91-.23a47,47,0,0,1,2.28,9.13c-.42-.05-.32-.42-.39-.67a12.75,12.75,0,0,0-.55-2c-.2-.44-.4-.47-.73-.18a21.48,21.48,0,0,0-2.47,2.46c-.61.73-1.37,1.27-2,2-1.66,1.77-3.43,3.44-5.15,5.15-.37.37-.65.81-1,1.15a.94.94,0,0,1-.67.28C147.3,97.65,145.9,96.83,144.49,96Z"/><path class="cls-51" d="M126.5,86c0-.31.29-.45.47-.63l21.91-21.92c.7-.7.7-.7,1.4,0a1,1,0,0,0,.27.15,21.09,21.09,0,0,1,1.72,2.5c-.34.25-.6.12-.74-.22s-.27-.25-.46-.07l-.4.4L130.44,86.46a5.38,5.38,0,0,0-.94,1.15Z"/><path class="cls-52" d="M86.38,127.87c-.19.22-.36,0-.49-.06-.51-.38-.85-.2-1.25.22-1.34,1.39-2.73,2.75-4.1,4.11L60.67,152c-.2.2-.35.48-.69.5a20,20,0,0,1-2.51-2c1,.66,1.35-.42,1.84-.82a22.9,22.9,0,0,0,2.45-2.48c.83-.93,1.83-1.69,2.68-2.61,1.24-1.34,2.6-2.57,3.89-3.86q7.07-7.1,14.16-14.17c.18-.18.34-.36.51-.55s.36,0,.51.11a27.6,27.6,0,0,0,2.62,1.43C86.25,127.63,86.41,127.67,86.38,127.87Z"/><path class="cls-26" d="M70.75,86.5A3.27,3.27,0,0,1,72,83.37c2.77-2.64,5.44-5.4,8.15-8.11l34.15-34.14c.54-.54,1.11-1.06,1.67-1.59l.88.22c.16.2.41.17.66.32a2.45,2.45,0,0,0-.78.63L71.58,85.86A2.36,2.36,0,0,1,70.75,86.5Z"/><path class="cls-53" d="M68.12,44.74c.16.19.3-.12.47,0s-.13.35-.27.48c-.72.69-1.37,1.45-2.16,2.07a14.21,14.21,0,0,0-1.36,1.45A29.54,29.54,0,0,1,62.51,51a23.35,23.35,0,0,0-1.62,1.72c-1.41,1.44-2.88,2.81-4.29,4.25s-2.67,2.79-4.09,4.1c-1.17,1.07-2.17,2.29-3.34,3.35-1.42,1.28-2.68,2.73-4,4.06a27.57,27.57,0,0,0-2.68,2.68c-.16.2-.36.48-.71.25a11.12,11.12,0,0,1,.84-1.62c.23-.15.28-.42.41-.63h0a2.15,2.15,0,0,0,.38-.64h0a2,2,0,0,0,.39-.65,54.41,54.41,0,0,1,5.05-7.21A63.41,63.41,0,0,1,59,50.65a65.51,65.51,0,0,1,9-5.9A.32.32,0,0,1,68.12,44.74Z"/><path class="cls-51" d="M129.5,87.61c-.08-.42.22-.64.47-.89l18.95-18.94L151,65.66c.26-.26.54-.53.61.15,0,.39.37.32.64.32a15.34,15.34,0,0,1,1.48,2.38c-.35,0-.36-.37-.48-.59-.2-.37-.42-.43-.73-.14l-.31.31-20,20c-.22.22-.5.4-.47.77A17,17,0,0,1,129.5,87.61Z"/><path class="cls-54" d="M90.25,37.63c-1.25.39-2.56.44-3.82.74-.48.12-1,.18-1.46.28a3.46,3.46,0,0,0-1.85,1Q77,45.91,70.7,52.07a.8.8,0,0,0-.2.68q0,3.06,0,6.12c.1.16.15.3-.1.37l0-1.63c-.09-.74,0-1.49,0-2.23q0-.82,0-1.65,0-1.37,0-2.74,0-1.93,0-3.86c0-1.2-.08-2.4.07-3.59A63.64,63.64,0,0,1,83,39c2.21-.55,4.46-.94,6.71-1.31A3.71,3.71,0,0,1,90.25,37.63Z"/><path class="cls-55" d="M148.76,98.36a6.06,6.06,0,0,0,1.06-.93,33.9,33.9,0,0,1,2.87-2.86c.58-.49,1-1.09,1.54-1.62,1.78-1.75,3.52-3.52,5.29-5.27.33-.33.71-.87,1.13-.72s.46.77.6,1.21a10.57,10.57,0,0,0,.53,2.08A28.73,28.73,0,0,1,162.4,95c-.36,0-.27-.29-.3-.48-.1-.7-.17-1.4-.29-2.1,0-.14,0-.32-.16-.39s-.26.1-.35.2c-2.8,2.84-5.68,5.6-8.43,8.49Z"/><path class="cls-56" d="M70.4,59.24c.12-.1.09-.24.1-.37L91.88,37.7c-.21-.25-.39-.17-.54-.21a18.5,18.5,0,0,1,3.08-.33,60.12,60.12,0,0,1,8.36,0,1.75,1.75,0,0,1,.36.1,24.68,24.68,0,0,1-3.77-.12c-.78.11-1.57.1-2.34.22A11.67,11.67,0,0,1,94.5,38c-.33,0-.54.36-.77.59L71.9,60.38a5.79,5.79,0,0,1-.63.6c-.2.15-.4.32-.68.15a1.75,1.75,0,0,1,0-1.05c0-.08,0,0,0-.06a.57.57,0,0,0,0,.1.09.09,0,0,1-.13,0Z"/><path class="cls-57" d="M126.13,159.13a12.18,12.18,0,0,1-2.25,1,1.22,1.22,0,0,0-.84-.48q-3.34-.68-6.64-1.49c-5.23-1.3-10.52-2.38-15.78-3.55-7.14-1.58-14.27-3.17-21.41-4.72-1.14-.25-2.28-.47-3.42-.74a2.91,2.91,0,0,1-1.06-.33.29.29,0,0,1,.14-.37,3.59,3.59,0,0,1,1.45-.77c2.17.6,4.39,1,6.58,1.46,4.67,1,9.34,2.1,14,3.13,3.86.85,7.74,1.64,11.59,2.53,4.83,1.12,9.69,2.06,14.52,3.15.85.19,1.71.38,2.55.6C125.84,158.63,126.25,158.64,126.13,159.13Z"/><path class="cls-58" d="M126.13,159.13c0-.29-.28-.33-.5-.38-4.23-1-8.47-1.89-12.72-2.76-2.27-.46-4.52-1-6.78-1.51-5.09-1.12-10.18-2.21-15.26-3.36q-6.9-1.56-13.82-3a1.78,1.78,0,0,1-.8-.32,2.37,2.37,0,0,1,1.58-1c3.43.85,6.89,1.59,10.35,2.35,2.86.63,5.74,1.2,8.6,1.86s5.59,1.31,8.41,1.88c5.08,1,10.12,2.24,15.18,3.33,2,.43,4,.78,6,1.27.28.07.57.13.85.21s.48.12.52.38-.27.27-.41.4A3.76,3.76,0,0,1,126.13,159.13Z"/><path class="cls-59" d="M127.38,158.48c.46-.39.31-.52-.22-.63q-5.16-1.09-10.3-2.23c-3.43-.76-6.84-1.64-10.29-2.31-5.38-1-10.69-2.45-16.06-3.52-3.59-.71-7.14-1.63-10.73-2.32-.69-.13-1.35-.38-2-.57a1.71,1.71,0,0,1,1.5-.91c-.07.49.38.31.54.35,2,.45,4,.85,5.94,1.29,3.07.68,6.13,1.4,9.2,2.08,3.59.79,7.21,1.49,10.79,2.33,3.22.76,6.45,1.49,9.69,2.14,3,.6,6,1.32,9,2,1.43.31,2.86.65,4.3.93.45.09.53.22.28.58A5.61,5.61,0,0,1,127.38,158.48Z"/><path class="cls-60" d="M74.75,148.73c3,.79,6.13,1.31,9.18,2,3.63.84,7.25,1.7,10.9,2.45,4.56.94,9.09,2,13.63,3,2.22.5,4.47.86,6.67,1.43,2.78.72,5.59,1.3,8.38,2,.34.08.57.15.37.55a12.57,12.57,0,0,1-2.38,1c-.06-.28.26-.34.35-.58-1.08-.38-2.2-.51-3.28-.8-3.28-.86-6.58-1.65-9.91-2.32-3.06-.62-6.1-1.34-9.15-2-2.48-.54-4.94-1.19-7.43-1.67-5.64-1.1-11.21-2.51-16.83-3.7a4.36,4.36,0,0,1-1.73-.47A1.16,1.16,0,0,1,74.75,148.73Z"/><path class="cls-61" d="M73.49,149.5l9.63,2.13c2.69.59,5.36,1.24,8.06,1.77s5.36,1.2,8.05,1.79,5.6,1.32,8.42,1.87c2.66.51,5.31,1.08,7.93,1.74,2.06.52,4.15.93,6.2,1.5.18,0,.49,0,.49.28s-.3.16-.45.26-.26.14-.32.28a3.12,3.12,0,0,1-1.13.39c0-.23.21-.49-.26-.56-2.65-.42-5.26-1.09-7.88-1.67-2.79-.62-5.55-1.33-8.35-1.88-5.73-1.11-11.37-2.61-17.08-3.75-4.43-.88-8.82-2-13.23-2.93a2.44,2.44,0,0,1-1.33-.48l.39-.35a.64.64,0,0,1,.21-.23,3.56,3.56,0,0,1,.42-.24A.22.22,0,0,1,73.49,149.5Z"/><path class="cls-62" d="M152.87,100.72c0-.26.13-.42.3-.58L161.35,92c.12-.12.22-.31.39-.28s.12.27.16.42a17.42,17.42,0,0,1,.36,2.51c0,.15,0,.3.16.38a4.34,4.34,0,0,1,.16,1.53,57.29,57.29,0,0,1,.15,7.33,1.49,1.49,0,0,1-.07.3c-.24-.21-.18-.5-.18-.76,0-1.08,0-2.16,0-3.24,0-.59-.1-1.16-.13-1.74a1.1,1.1,0,0,1,.13-.76c-1.76,1.8-3.52,3.61-5.35,5.36Z"/><path class="cls-63" d="M68,152.86a5.32,5.32,0,0,1,1.16-.73.31.31,0,0,1,.3,0c5.76,1.34,11.54,2.59,17.31,3.86,3.58.79,7.17,1.53,10.74,2.35,4.77,1.1,9.56,2.06,14.34,3.14,1.32.3,2.65.57,4,.9.26.06.68,0,.6.51a15.9,15.9,0,0,1-2.63.66c.16-.48-.25-.45-.49-.51-1.49-.35-3-.67-4.48-1-2-.43-4-.85-5.94-1.29-4.2-.93-8.38-1.94-12.59-2.81-4-.82-8-1.73-11.93-2.62-3.19-.71-6.38-1.37-9.58-2A2.84,2.84,0,0,1,68,152.86Z"/><path class="cls-64" d="M69.5,106.13c-.34,0-.48.3-.68.5Q56,119.4,43.27,132.19c-.32.32-.57.52-.9.07l-.28-.48a1,1,0,0,1,.29-.54l.22-.22q12.69-12.84,25.47-25.59c.33-.33.62-.75,1.19-.67v.13C69.67,105.22,69.59,105.67,69.5,106.13Z"/><path class="cls-65" d="M116.37,162.85c-.42-.54-1.09-.42-1.64-.56-2-.5-4-.92-6-1.35-3.43-.74-6.87-1.45-10.3-2.2-2.28-.5-4.54-1.13-6.83-1.58-6-1.17-12-2.71-18.05-3.93-1.09-.22-2.17-.53-3.27-.69a7.41,7.41,0,0,1-1.16-.41,4,4,0,0,1,1.09-.65,5.89,5.89,0,0,1,2.08.35c7.39,1.67,14.8,3.28,22.2,4.9,5.76,1.26,11.5,2.59,17.26,3.82,1.79.38,3.58.77,5.38,1.12.34.07.78.06.86.56A4.21,4.21,0,0,1,116.37,162.85Z"/><path class="cls-64" d="M69.25,104.75a3.34,3.34,0,0,0-1.11.79C62.4,111.29,56.61,117,50.93,122.79c-2.78,2.84-5.61,5.63-8.39,8.48l-.46.5-.57-1c1.16-1,2.13-2.25,3.3-3.28,1.52-1.35,2.87-2.89,4.31-4.32S52,120.42,53.32,119s2.62-2.49,3.84-3.82,2.78-2.74,4.15-4.13c2.38-2.42,4.78-4.8,7.19-7.19.15-.15.28-.46.52-.37s.17.4.22.61A3.26,3.26,0,0,1,69.25,104.75Z"/><path class="cls-66" d="M157.11,103a.7.7,0,0,1,.27-.47l4.84-4.84a1.73,1.73,0,0,1,.22-.15,63.54,63.54,0,0,1,.2,6.59c0,.45,0,.9,0,1.36,0,.21,0,.42-.29.46C160.61,105,158.78,104.15,157.11,103Z"/><path class="cls-67" d="M72.24,150.25l6.35,1.43c2.34.53,4.67,1.13,7,1.57,4.46.85,8.87,2,13.3,2.95,3.25.71,6.51,1.36,9.76,2.07,2.44.53,4.87,1.14,7.32,1.66a43.62,43.62,0,0,0,4.43.92c.17,0,.45,0,.47.2s-.26.22-.4.33l-.13.13a.19.19,0,0,1-.1,0c-4.9-1.11-9.81-2.13-14.7-3.27-1.4-.33-2.79-.66-4.2-.92-3.57-.66-7.1-1.55-10.64-2.32-2-.43-4-.83-5.94-1.39a1.57,1.57,0,0,0-.7-.1c-1.6-.24-3.17-.67-4.75-1-2.21-.47-4.42-1-6.62-1.49a1.19,1.19,0,0,1-.86-.44A.4.4,0,0,1,72.24,150.25Z"/><path class="cls-68" d="M118,162.23c-.5-.49-1.19-.44-1.79-.58-2.46-.55-4.94-1-7.4-1.58-3.19-.71-6.36-1.51-9.56-2.17-4.34-.89-8.66-1.86-13-2.83-4-.9-8-1.71-12-2.59-1.35-.3-2.69-.67-4-1A1.88,1.88,0,0,1,71,151c2.25.69,4.57,1.11,6.87,1.61q9.43,2.05,18.84,4.17c2.78.62,5.58,1.16,8.36,1.8,3.65.85,7.31,1.66,11,2.42l2.26.47c.28.06.59.1.72.42A1.32,1.32,0,0,1,118,162.23Z"/><path class="cls-68" d="M119,161.89a28.88,28.88,0,0,0-3.87-.88c-2.91-.65-5.83-1.22-8.73-1.91-2.48-.59-5-1.15-7.45-1.66-5.92-1.2-11.79-2.67-17.7-3.91l-8.38-1.79c-.49-.1-1-.24-1.44-.36-.2-.05-.42-.09-.45-.36l.38-.25c1.29.22,2.56.56,3.83.84,2.17.48,4.33,1,6.51,1.46q4.57,1,9.13,2c3.41.76,6.8,1.57,10.23,2.24,2.93.58,5.84,1.29,8.76,1.94,2.35.52,4.68,1.15,7.06,1.53.74.12,1.47.28,2.19.47.2.05.42.13.45.37s-.19.18-.29.26Z"/><path class="cls-67" d="M119.25,161.87c.38-.35.08-.43-.2-.49-1.25-.26-2.51-.49-3.77-.76-1.56-.34-3.1-.71-4.66-1.06l-6.35-1.44c-3.37-.76-6.77-1.37-10.13-2.17s-6.69-1.54-10.05-2.22c-2.69-.55-5.37-1.15-8-1.81-1.36-.33-2.75-.56-4.12-.91a1,1,0,0,1-.56-.25.6.6,0,0,1,.47-.15c2.67.75,5.39,1.27,8.09,1.89,1.23.28,2.46.55,3.69.82.16,0,.33,0,.49.06s.44,0,.63.13l6.17,1.41c3.23.73,6.44,1.57,9.69,2.17,4.6.85,9.13,2,13.69,3,1.57.34,3.16.62,4.74.92a2,2,0,0,1,1.22.54A1.84,1.84,0,0,1,119.25,161.87Z"/><path class="cls-69" d="M70.38,43.55l0,3.58h-.08l0-3.47Z"/><path class="cls-38" d="M126.75,43.62a7.91,7.91,0,0,1-2.48-1.16A11.23,11.23,0,0,1,126.75,43.62Z"/><path class="cls-14" d="M35.24,90.46a6.09,6.09,0,0,1-.42,2.41Z"/><path class="cls-22" d="M34.38,103.38c.25.46.08.95.11,1.42A3.87,3.87,0,0,1,34.38,103.38Z"/><path class="cls-70" d="M138.51,151.43a1,1,0,0,1,.73-.68.57.57,0,0,1,0,.09A3,3,0,0,1,138.51,151.43Z"/><path class="cls-18" d="M39.36,76.34a1.13,1.13,0,0,1-.37.91A2.71,2.71,0,0,1,39.36,76.34Z"/><path class="cls-6" d="M34.74,108c.27.31.09.68.13,1A1.68,1.68,0,0,1,34.74,108Z"/><path class="cls-6" d="M34.62,107c.25.28.09.61.12.92A1.52,1.52,0,0,1,34.62,107Z"/><path class="cls-43" d="M43.74,67.84a.65.65,0,0,1-.39.65A1.52,1.52,0,0,1,43.74,67.84Z"/><path class="cls-43" d="M43.36,68.48a.64.64,0,0,1-.38.64A1.32,1.32,0,0,1,43.36,68.48Z"/><path class="cls-43" d="M43,69.1c0,.28-.09.54-.41.63A2.09,2.09,0,0,1,43,69.1Z"/><path class="cls-18" d="M39.74,75.48c0,.26,0,.52-.31.63Z"/><path class="cls-49" d="M138.75,51.25a.59.59,0,0,1-.5-.39A.62.62,0,0,1,138.75,51.25Z"/><path class="cls-18" d="M39,77.24c0,.25,0,.49-.29.62Z"/><path class="cls-24" d="M144.27,56.25a.58.58,0,0,1-.38-.44C144,55.93,144.24,56,144.27,56.25Z"/><path class="cls-71" d="M70.63,80.88a6.25,6.25,0,0,1-.1,1.74l0-.87a14,14,0,0,1,0-1.75q0-1.12,0-2.25,0-1.44,0-2.87c0-1.17,0-2.33-.06-3.5,0-1.45,0-2.9.06-4.35q0-1.31,0-2.61c0-.51,0-1,0-1.52a.14.14,0,0,1,.21,0,2.59,2.59,0,0,1,0,2q0,4.25,0,8.5Q70.63,77.13,70.63,80.88Z"/><path class="cls-56" d="M70.63,64.88v-2a2.69,2.69,0,0,1,0-1.75,1.54,1.54,0,0,0,.92-.6Q82.67,49.39,93.8,38.25a1.29,1.29,0,0,1,1.2-.5c.64.11,1.08-.38,1.64-.51a14.76,14.76,0,0,1,2.73-.12c-1.26.08-2,1-2.75,1.81L81.48,54.08l-3.74,3.74c-1.28,1.28-2.52,2.59-3.84,3.82C72.77,62.69,71.82,63.9,70.63,64.88Z"/><path class="cls-72" d="M70.48,74.88v2.87q-.05.08-.09,0l0-2.37,0-.5Z"/><path class="cls-73" d="M70.39,77.74h.09V80q-.05.08-.1,0V77.74Z"/><path class="cls-74" d="M70.48,67v4.37a.11.11,0,0,1-.16-.09c0-.72,0-1.45,0-2.17a11.37,11.37,0,0,1,0-1.49l0-.63Z"/><path class="cls-75" d="M70.51,62.88l0,1.5H70.4V60.74a.11.11,0,0,1,.16.1A15.88,15.88,0,0,1,70.51,62.88Z"/><path class="cls-76" d="M70.4,64.37h.08q0,1.31,0,2.63h-.08Z"/><path class="cls-77" d="M70.35,55.38v2.24a9.36,9.36,0,0,1-.1-2.25C70.29,55.31,70.33,55.32,70.35,55.38Z"/><path class="cls-78" d="M70.35,55.38h-.1l0-1,0-.63c0-.05.06-.05.09,0Z"/><path class="cls-79" d="M70.35,67.62v1.5c0,.06-.07.06-.11,0v-1.5Z"/><path class="cls-56" d="M70.49,60.77l-.09,0v-.62h.09A.71.71,0,0,1,70.49,60.77Z"/><path class="cls-80" d="M100.09,130.48c1.45-.19,2.91-.3,4.34-.6a9.8,9.8,0,0,1,1.81-.38l-.74.52-5.13,3.12c-1.63,1-3.3,1.91-4.88,3a29.8,29.8,0,0,0-3.27,2,4.23,4.23,0,0,1-1.86,1.14,25.24,25.24,0,0,0-3,1.79l-.5.23c-.11-.3.09-.52.23-.74a8,8,0,0,1,1.48-1.6,24.07,24.07,0,0,0,2.6-2.6c.82-1,1.85-1.67,2.69-2.6s1.93-2,2.94-3c.09-.09.17-.19.31-.18H99.8C99.89,130.56,100,130.66,100.09,130.48Z"/><path class="cls-26" d="M77.56,80.77,75.68,82.9c-.17-.43.29-.5.45-.73A4.29,4.29,0,0,1,77.56,80.77Z"/><path class="cls-26" d="M80.66,78,79,79.38A2.55,2.55,0,0,1,80.66,78Z"/><path class="cls-26" d="M74,85.12A10.73,10.73,0,0,1,72.9,87c-.14-.38.17-.59.33-.85A3.72,3.72,0,0,1,74,85.12Z"/><path class="cls-26" d="M78.5,79.86a2.09,2.09,0,0,1-.6.58,1.71,1.71,0,0,1,.42-.67C78.43,79.64,78.48,79.73,78.5,79.86Z"/><path class="cls-26" d="M74.64,84.28a1.14,1.14,0,0,1-.37.52C74.32,84.58,74.2,84.23,74.64,84.28Z"/><path class="cls-26" d="M81.68,77.27a.85.85,0,0,1-.55.35C81.25,77.41,81.4,77.23,81.68,77.27Z"/><path class="cls-11" d="M100.63,72H96.37c.18-.22.42-.13.64-.13h3C100.21,71.91,100.45,71.79,100.63,72Z"/><path class="cls-81" d="M97,130.63c0,.27-.2.41-.37.55-1.12.94-2,2.1-3.08,3.08-1.51,1.37-2.85,2.9-4.31,4.32a13.34,13.34,0,0,0-1.89,1.88,6.4,6.4,0,0,0-.46.81l-3.75,2.37c-1.31.75-2.62,1.52-3.88,2.37a6.92,6.92,0,0,0-1.5.91l-1.5.88-1.51.95a5.38,5.38,0,0,0-1.25.76l-.23,0a.49.49,0,0,0-.38.23l-.25.14c-.08-.58.32-.91.67-1.26l16.55-16.55c.76-.76,1.51-1.54,2.27-2.32a45.92,45.92,0,0,0,4.91.72.28.28,0,0,1-.36,0C96.77,130.61,96.92,130.52,97,130.63Z"/><path class="cls-82" d="M70.73,92.13l-.21.51a12.33,12.33,0,0,1,0-2.76l0-.5h.08c0,.72,0,1.44,0,2.17C70.63,91.74,70.55,92,70.73,92.13Z"/><path class="cls-83" d="M70.62,84.26v3h-.08v-3S70.6,84.2,70.62,84.26Z"/><path class="cls-41" d="M70.48,89.87l0,2.76,0,.24c0,.05-.07,0-.1,0v-3Z"/><path class="cls-84" d="M70.52,87.25h.08q0,1.06,0,2.12h-.08Q70.52,88.31,70.52,87.25Z"/><path class="cls-85" d="M70.38,80h.1v1.74A5.69,5.69,0,0,1,70.38,80Z"/><path class="cls-26" d="M70.62,84.26l-.1,0V83A3.19,3.19,0,0,1,70.62,84.26Z"/><path class="cls-86" d="M70.35,53.75h-.09l0-1.24,0-1.51h.08Z"/><path class="cls-87" d="M70.39,71.37h.09v3.5h-.09l0-2.38A2.21,2.21,0,0,1,70.39,71.37Z"/><path class="cls-20" d="M70.39,71.37l0,1.12a7.73,7.73,0,0,1-.1-2.07c0-.43,0-.86,0-1.3h.11Z"/><path class="cls-47" d="M70.38,92.87h.1l-.25.87C70,93.41,70.22,93.15,70.38,92.87Z"/><path class="cls-36" d="M69.36,98.5a2.12,2.12,0,0,1-.09.92,1.3,1.3,0,0,1,0-.92Z"/><path class="cls-24" d="M120.76,82.12l-.32-.35C120.62,81.82,120.83,81.85,120.76,82.12Z"/><path class="cls-64" d="M69.39,104.44l.38,2.39s0,.27-.12.09a3,3,0,0,1-.15-.8c-.18-.4,0-.86-.25-1.25C69.41,104.77,69.37,104.59,69.39,104.44Z"/><path class="cls-29" d="M69.25,98.5l0,.92,0,1.32A4.29,4.29,0,0,1,69.25,98.5Z"/><path class="cls-88" d="M69.24,101.75l0,1.22s-.12.17-.12.11C69.16,102.64,69,102.18,69.24,101.75Z"/><path class="cls-11" d="M96.3,72a5.54,5.54,0,0,1-1.3.13C95.41,71.85,95.87,72.06,96.3,72Z"/><path class="cls-11" d="M94.94,72.14a1.69,1.69,0,0,1-.82.12l.13-.13Z"/><path class="cls-70" d="M90.37,139.24a14.27,14.27,0,0,1,1.86-1.14.8.8,0,0,0,.66.41c4.07.73,8.08,1.76,12.12,2.63,2.06.44,4.1,1,6.18,1.39,4.05.73,8,1.78,12.06,2.61,1.48.3,2.94.72,4.42,1,1.67.3,3.32.69,5,1,2.5.54,5,1.14,7.47,1.71l.42.12c.32.08.29.22.09.43a5.2,5.2,0,0,1-1.14,1,3.72,3.72,0,0,0-1.65-.47c-2.09-.31-4.13-.87-6.18-1.33-3.59-.8-7.16-1.71-10.77-2.4-3.82-.73-7.59-1.67-11.39-2.47-1.66-.35-3.3-.77-5-1.09-4.53-.88-9-2-13.5-3A.84.84,0,0,1,90.37,139.24Z"/><path class="cls-89" d="M70.35,51h-.08q0-1.94,0-3.87h.08Z"/><path class="cls-11" d="M94,72.26a1.38,1.38,0,0,1-.67.12C93.56,72.16,93.81,72.28,94,72.26Z"/><path class="cls-44" d="M87.5,128.36a1.13,1.13,0,0,1,.64.25A.63.63,0,0,1,87.5,128.36Z"/><path class="cls-44" d="M86.88,128.1a1.29,1.29,0,0,1,.63.27A.61.61,0,0,1,86.88,128.1Z"/><path class="cls-46" d="M70.49,60.77v-.65l0-.35h.11v3.1h-.11Z"/><path class="cls-44" d="M72.89,149.76c0-.35.16-.3.38-.23A.5.5,0,0,1,72.89,149.76Z"/><path class="cls-67" d="M84.75,153.5c-.21,0-.45.08-.62-.12C84.34,153.4,84.57,153.29,84.75,153.5Z"/><path class="cls-90" d="M121.25,99.13a13.26,13.26,0,0,1,0,3.79.38.38,0,0,1-.17-.26c-.07-.37,0-.74,0-1.11-2,.62-4.08,1-6.09,1.62-3,.87-6.08,1.77-9.14,2.55-4.28,1.08-8.49,2.42-12.76,3.5-4.44,1.12-8.82,2.45-13.25,3.63a1,1,0,0,1-.95-.09,8.6,8.6,0,0,1-1-1.88c0-.19.12-.18.23-.21,5.67-1.46,11.29-3.09,16.94-4.6,4.47-1.2,8.9-2.51,13.37-3.67,4-1,8-2.2,12.05-3.29C120.72,99,121,98.92,121.25,99.13Z"/><path class="cls-91" d="M76.48,106.92a5.4,5.4,0,0,1-.37-1.74c0-.16-.12-.34.08-.46a12.57,12.57,0,0,0,3-.7c2.93-.79,5.85-1.64,8.79-2.39,3.73-1,7.4-2.13,11.13-3.07,5.47-1.37,10.84-3.1,16.33-4.42,1.29-.31,2.57-.69,3.84-1.08.27-.08.46-.09.6.19a5.14,5.14,0,0,1,.49,1.5c-.15.37-.51.39-.82.48-5.5,1.58-11,3-16.55,4.55-2.53.69-5,1.48-7.58,2.1-4.19,1-8.3,2.31-12.46,3.42-1.87.5-3.77.89-5.61,1.48C77.07,106.86,76.74,106.66,76.48,106.92Z"/><path class="cls-92" d="M75.75,100.25A9.78,9.78,0,0,1,76,97.87a2.1,2.1,0,0,0,1.45-.07c3.63-1,7.24-2.09,10.89-3,5.26-1.35,10.46-2.93,15.73-4.27,3.51-.89,7-1.92,10.46-2.93a13.09,13.09,0,0,0,1.62-.44c.17-.07.28,0,.4.1a6.91,6.91,0,0,1,1.09,1.51c0,.37-.34.44-.62.53-1,.33-2,.56-3,.85-3.69,1-7.41,1.95-11.09,3-5.74,1.66-11.54,3.11-17.29,4.75-3,.85-6,1.6-8.93,2.39C76.39,100.37,76.06,100.51,75.75,100.25Z"/><path class="cls-93" d="M78.87,112.76a6.36,6.36,0,0,0,2.36-.49c3.2-.87,6.37-1.85,9.59-2.66,4.44-1.12,8.81-2.51,13.25-3.63,5.57-1.4,11-3.14,16.62-4.49a3.2,3.2,0,0,0,.53-.24v1.41c-.11.21,0,.46-.11.66a8.56,8.56,0,0,1-2.47.82c-4.13,1.22-8.34,2.18-12.48,3.39-2.16.63-4.31,1.3-6.49,1.82-4.52,1.09-8.94,2.52-13.43,3.67q-2.63.67-5.25,1.39a3.12,3.12,0,0,1-1,.11A10.39,10.39,0,0,1,78.87,112.76Z"/><path class="cls-94" d="M85.24,119.76a14.57,14.57,0,0,1-2.38-2c0-.06,0-.16.05-.15.78.28,1.46-.13,2.17-.31,4.64-1.14,9.22-2.54,13.85-3.75,5.39-1.41,10.73-3,16.13-4.41,1.67-.43,3.34-.84,5-1.36.39-.12.25.17.21.35a9.55,9.55,0,0,1-1,2.57c-.29-.16-.57,0-.84,0-2.38.66-4.75,1.4-7.15,2-4.61,1.13-9.13,2.57-13.72,3.75-3.81,1-7.59,2-11.37,3.14A2.87,2.87,0,0,1,85.24,119.76Z"/><path class="cls-95" d="M76.48,106.92a1.69,1.69,0,0,1,.07-.29,10.74,10.74,0,0,0,3.2-.71c3.33-.75,6.59-1.78,9.89-2.67,1.56-.43,3.1-.89,4.67-1.28,4.1-1,8.12-2.3,12.22-3.34s8.31-2.27,12.45-3.43a5.22,5.22,0,0,0,1.41-.45,4.53,4.53,0,0,1,.36,1.38c-.05.59-.52.68-1,.8-2.65.71-5.3,1.45-8,2.13-3.27.84-6.48,1.88-9.75,2.7-3.65.92-7.27,2-10.9,3-4.43,1.23-8.9,2.33-13.31,3.64-.3.09-.58.22-.89.28A5.48,5.48,0,0,1,76.48,106.92Z"/><path class="cls-96" d="M76,104.42a2.33,2.33,0,0,1-.12-1.11c-.18-1.44-.18-1.42,1.23-1.81,3.61-1,7.2-2.07,10.82-3,4.43-1.14,8.81-2.49,13.24-3.63s9-2.5,13.54-3.72c1.26-.34,2.55-.55,3.78-1a5.74,5.74,0,0,1,.78,1.62,1,1,0,0,1-.67.41c-3.72,1-7.41,2.08-11.14,3-3.51.9-7,2-10.47,2.91-5.41,1.36-10.73,3.06-16.15,4.37-1.19.29-2.37.66-3.56,1A1.54,1.54,0,0,0,76,104.42Z"/><path class="cls-97" d="M118.48,90.13c-.24.46-.73.46-1.12.55-2.81.63-5.55,1.5-8.33,2.24-2.28.61-4.54,1.28-6.83,1.88-4.45,1.16-8.86,2.45-13.31,3.62-3.91,1-7.78,2.16-11.68,3.23l-.06,0c-.4.14-1,0-1.2.35s-.07.85-.09,1.28a12.23,12.23,0,0,1-.11-3.06,13.8,13.8,0,0,0,3-.71c3.44-.91,6.89-1.81,10.31-2.8,4.44-1.29,8.94-2.34,13.37-3.65,2.46-.73,4.93-1.45,7.42-2.05s4.71-1.29,7.07-1.92a1.24,1.24,0,0,0,.69-.38A6.22,6.22,0,0,1,118.48,90.13Z"/><path class="cls-98" d="M121.25,99.13c-1.5.4-3,.77-4.5,1.2-2.67.77-5.35,1.47-8,2.18-3.12.82-6.22,1.75-9.34,2.6-2.4.66-4.81,1.26-7.2,1.91s-4.54,1.31-6.82,1.92-4.71,1.15-7,1.9c-.17.05-.33-.1-.47,0a4.17,4.17,0,0,1-.51-1.21c-.12-.3.09-.36.3-.41,3.94-1,7.82-2.19,11.74-3.21,4.72-1.22,9.38-2.62,14.09-3.85q4.5-1.17,9-2.44c2.54-.72,5.1-1.39,7.66-2.05.34-.09.54-.37.86-.45A7.68,7.68,0,0,1,121.25,99.13Z"/><path class="cls-99" d="M120.26,108.15c0-.1,0-.3-.08-.27-5.06,1.65-10.27,2.76-15.36,4.3-3.17,1-6.41,1.67-9.59,2.58-2.27.64-4.53,1.33-6.82,1.91-1.58.4-3.18.76-4.73,1.29-.39.13-.51-.31-.81-.17a4.26,4.26,0,0,1-.88-.86c0-.55.49-.56.84-.66l5.29-1.48c1.91-.53,3.79-1.14,5.71-1.59,2.51-.59,5-1.31,7.48-2,2-.55,3.91-1.17,5.89-1.65,2.79-.68,5.55-1.49,8.32-2.24,1.61-.43,3.21-.9,4.81-1.36.37-.1.59-.11.44.37A6.8,6.8,0,0,1,120.26,108.15Z"/><path class="cls-100" d="M116.55,87.24l-3.56,1c-4,1.11-8,2.27-12,3.31-3.65.94-7.27,2-10.91,3L80,97.25c-1.1.3-2.21.57-3.29.92a.53.53,0,0,1-.74-.29,4.19,4.19,0,0,1,.24-1.37,1.3,1.3,0,0,1,.57-.23c4.48-1.31,9-2.36,13.49-3.68,4.85-1.43,9.79-2.55,14.63-4,3.27-1,6.62-1.65,9.88-2.68a.77.77,0,0,1,.71.1A5.57,5.57,0,0,1,116.55,87.24Z"/><path class="cls-101" d="M85.24,119.76c1.35-.52,2.76-.84,4.15-1.24,2-.58,4-1.18,6-1.67,2.9-.71,5.76-1.53,8.63-2.35,4.44-1.28,8.95-2.3,13.36-3.65.48-.15,1-.25,1.43-.41.29-.09.39,0,.38.28a8.65,8.65,0,0,1-1,1.94c-1.76.33-3.48.81-5.21,1.29-4.53,1.26-9.06,2.52-13.61,3.73-4,1.06-7.9,2.18-11.85,3.28-.12,0-.25,0-.37.07A14.91,14.91,0,0,1,85.24,119.76Z"/><path class="cls-102" d="M80,114.52c.1-.4.42-.12.62-.18,3.6-1.06,7.26-1.88,10.85-3,2.32-.7,4.65-1.41,7-2,3.78-.86,7.45-2.1,11.2-3.05,1.85-.47,3.69-1,5.52-1.47s3.95-1.1,5.92-1.66c.08.09.06.2.06.3a2,2,0,0,1,0,.63,1.59,1.59,0,0,1-.12.85c-.13,0,0-.38-.32-.16a6.8,6.8,0,0,1-2.07.67c-3.86.87-7.63,2.08-11.45,3.1-4.06,1.09-8.12,2.17-12.17,3.31-4.53,1.27-9.09,2.4-13.6,3.74a2.45,2.45,0,0,1-.43.08A7.43,7.43,0,0,1,80,114.52Z"/><path class="cls-103" d="M121,97.25c-.17.17-.12.45-.49.54-5.09,1.24-10.09,2.81-15.17,4.11-4.29,1.1-8.52,2.43-12.82,3.52-4.78,1.21-9.49,2.67-14.26,3.91-.3.08-.73-.12-.9.34a2.65,2.65,0,0,1-.37-1c0-.26.22-.25.4-.3,3.35-.94,6.68-2,10.06-2.75,2.52-.6,5-1.39,7.48-2.09,2.13-.61,4.28-1.17,6.42-1.74,3.15-.83,6.27-1.76,9.4-2.62,1.62-.44,3.25-.82,4.87-1.25,1.46-.39,2.91-.81,4.37-1.2a1,1,0,0,0,.75-.57C120.72,96.52,121.06,96.85,121,97.25Z"/><path class="cls-104" d="M81,115.78a5.11,5.11,0,0,1,2.14-.74c2.3-.69,4.61-1.37,6.94-1.93,2.6-.63,5.16-1.37,7.73-2.11,4-1.15,8-2.12,12-3.28,2.9-.84,5.8-1.7,8.75-2.35a11.39,11.39,0,0,0,2.38-.76l0,.43a3.52,3.52,0,0,1-.25,1.26c-.06-.12.13-.37-.28-.26-3.46,1-6.92,2-10.41,2.93-4.5,1.15-8.94,2.47-13.42,3.69-1.56.42-3.14.75-4.69,1.19-3.09.88-6.18,1.74-9.27,2.61-.28.08-.58.14-.71.44A6.13,6.13,0,0,1,81,115.78Z"/><path class="cls-105" d="M110.39,81.74c.48.35,1.09.51,1.47,1-.07.28-.3.38-.54.47a9.7,9.7,0,0,1-1.14.32c-4.48,1.07-8.87,2.43-13.3,3.65-.82.23-1.66.39-2.5.55-2.31.45-4.55,1.19-6.81,1.84-3,.85-6,1.6-9,2.39-.38.1-.62.5-1.05.4a12,12,0,0,1,1.11-2.25c3.08-.63,6.07-1.62,9.1-2.45,1.87-.51,3.76-.91,5.62-1.46,5.15-1.53,10.36-2.83,15.54-4.26C109.38,81.81,109.85,81.5,110.39,81.74Z"/><path class="cls-106" d="M110.39,81.74c-1.44.26-2.81.77-4.23,1.13-2.24.57-4.48,1.17-6.72,1.78C96.61,85.44,93.8,86.3,91,87c-3.86,1-7.64,2.16-11.49,3.15a1,1,0,0,1-.84,0,7.39,7.39,0,0,1,.85-1.39,2.18,2.18,0,0,1,1.17-.52C85.1,87.08,89.53,85.86,94,84.6c3.68-1,7.41-1.93,11.08-3,.9-.27,1.81-.5,2.7-.78a1.4,1.4,0,0,1,.79-.07A7.88,7.88,0,0,1,110.39,81.74Z"/><path class="cls-107" d="M87.24,121a1.62,1.62,0,0,1,1-.45l14.26-3.89,12.57-3.47c.92-.25,1.85-.46,2.77-.69.17,0,.33-.05.44.13a6.94,6.94,0,0,1-1,1.57c-1.66.32-3.26.84-4.88,1.3-3.26.93-6.57,1.68-9.82,2.64-4.11,1.22-8.27,2.25-12.41,3.38a4.25,4.25,0,0,1-1.26.32A10,10,0,0,1,87.24,121Z"/><path class="cls-108" d="M76.48,95.5a2,2,0,0,1,.24-.88c.16-.16.08-.46.32-.58,2-.65,4-1.18,6.05-1.74C88.54,90.78,94,89.4,99.45,87.78c1.28-.38,2.61-.5,3.9-.85,3.19-.88,6.36-1.8,9.55-2.69.28-.08.56-.2.83,0,.25.39.86.43,1,1a42.57,42.57,0,0,0-5.52,1.43c-3.41.93-6.85,1.78-10.24,2.76-5.13,1.49-10.34,2.74-15.47,4.25-1.9.56-3.8,1.09-5.74,1.48C77.29,95.23,76.93,95.55,76.48,95.5Z"/><path class="cls-109" d="M77,94.13c-.12.15-.07.4-.28.49a9,9,0,0,1,.8-2.24c.84-.8,2-.78,3-1.08,2-.6,4-1,6.05-1.59,3.26-.94,6.53-1.81,9.84-2.59,3.58-.85,7.1-2,10.64-3,1.19-.33,2.41-.59,3.61-.89a2.84,2.84,0,0,0,1.2-.49c.27.34.78.36,1,.75-.15.37-.5.41-.82.5-4.78,1.3-9.52,2.74-14.32,3.95-3.27.82-6.48,1.87-9.74,2.71s-6.71,1.83-10.07,2.71C77.44,93.49,77.29,93.85,77,94.13Z"/><path class="cls-110" d="M88.88,121.87a29.56,29.56,0,0,1,4.92-1.48c3.86-1,7.66-2.16,11.51-3.17,3.35-.88,6.69-1.78,10-2.72l1.2-.33a.77.77,0,0,1,.71,0,8,8,0,0,1-1.25,1.62c-3.72,1-7.45,1.93-11.14,3-2.91.87-5.87,1.58-8.81,2.36-1.49.39-3,.84-4.45,1.25-.19.05-.43.06-.49.32A12.63,12.63,0,0,1,88.88,121.87Z"/><path class="cls-111" d="M108.53,80.74c-3.28,1-6.58,2-9.9,2.81-4.54,1.15-9,2.53-13.53,3.72q-2.37.62-4.75,1.2a3.54,3.54,0,0,1-.87.28,5,5,0,0,1,.88-1.25,2.14,2.14,0,0,1,.92-.61c4-1.11,8-2.33,12-3.34s8-2.22,12-3.29c.4-.11.73-.39,1.16-.4A8,8,0,0,1,108.53,80.74Z"/><path class="cls-112" d="M106.42,79.85a3.86,3.86,0,0,1-1.93.78c-3.31.94-6.61,1.92-9.94,2.76-4.44,1.12-8.82,2.47-13.24,3.65a6,6,0,0,0-1,.44,13,13,0,0,1,2-2.37c2.18-.54,4.32-1.21,6.51-1.72,1.7-.39,3.37-.92,5.05-1.39,2.95-.81,5.86-1.75,8.85-2.39a4,4,0,0,0,.83-.25c0-.16-.33-.16-.2-.39h0l.06,0A10.79,10.79,0,0,1,106.42,79.85Z"/><path class="cls-113" d="M76,104.42c-.1-.7.3-.9.9-1.06,4.8-1.28,9.59-2.58,14.39-3.88q5.21-1.42,10.41-2.85c2-.56,4-1.23,6-1.71,3.75-.88,7.43-2,11.15-3,.14,0,.27-.1.41-.15l.3.85a11.11,11.11,0,0,1-2.08.64c-3.73,1.11-7.53,2-11.27,3.05-2.18.63-4.35,1.31-6.55,1.84-5.22,1.26-10.32,2.95-15.54,4.21-2.45.59-4.85,1.36-7.28,2a1,1,0,0,0-.6.41c-.16.11-.12.28-.14.43A1.38,1.38,0,0,1,76,104.42Z"/><path class="cls-114" d="M103.52,79c.05.29.41.14.53.39a5.82,5.82,0,0,1-1.58.5c-3.2.69-6.31,1.73-9.48,2.57-2.88.76-5.76,1.54-8.64,2.31a4.14,4.14,0,0,1-2,.37,18.68,18.68,0,0,1,3.37-2.78c.15.48.49.19.71.12,1.37-.41,2.77-.75,4.14-1.17,2.62-.8,5.3-1.41,7.94-2.13.4-.11.8-.22,1.2-.35,0-.14-.27-.11-.21-.24s.34-.11.53-.08A12.1,12.1,0,0,1,103.52,79Z"/><path class="cls-115" d="M91.11,122.8c-.1-.16-.18-.26.11-.36,1.08-.38,2.19-.63,3.28-.93,4.61-1.29,9.25-2.46,13.84-3.79,2.44-.71,4.92-1.31,7.38-2,.12,0,.25-.1.27.11a7,7,0,0,1-1.5,1.63c-1.89.49-3.78,1-5.66,1.55-3.24,1-6.53,1.7-9.77,2.64-1.72.5-3.47.9-5.17,1.47a8.38,8.38,0,0,1-1.17.15Z"/><path class="cls-113" d="M76.25,104.75c-.08-.2-.25-.4.15-.5,2.68-.71,5.35-1.46,8-2.15,4.23-1.09,8.4-2.41,12.64-3.48,2.47-.62,4.91-1.33,7.37-2,2.24-.59,4.46-1.3,6.71-1.85,2.68-.66,5.31-1.48,8-2.16a2,2,0,0,1,.43,0c.3.12.28.4.34.64-.12,0-.15-.19-.31-.14-2.65.89-5.38,1.49-8.07,2.21-3.26.87-6.48,1.88-9.75,2.72-4.73,1.21-9.4,2.67-14.14,3.87-3.57.9-7.09,2-10.66,2.9C76.76,104.86,76.44,105.21,76.25,104.75Z"/><path class="cls-116" d="M92.73,123.29l3.37-1c2.26-.63,4.5-1.31,6.77-1.87,3.67-.9,7.26-2,10.91-3,.24-.06.47-.18.71,0a9.86,9.86,0,0,1-2.37,2,14.81,14.81,0,0,1-3,.86c-2.25.53-4.46,1.2-6.69,1.82-1.5.42-3,.82-4.51,1.26a4.11,4.11,0,0,1-1.77.46,9,9,0,0,1-2.26-.35c-.18-.2-.45,0-.65-.14S92.87,123.44,92.73,123.29Z"/><path class="cls-117" d="M77,94.13c.06-.59.37-.8,1-1,2.57-.65,5.1-1.46,7.67-2.1,4.25-1,8.4-2.41,12.64-3.46,3.22-.79,6.39-1.74,9.59-2.62a49.78,49.78,0,0,0,5-1.49,2.6,2.6,0,0,1,.86.75,35.57,35.57,0,0,0-3.54.92c-2.32.63-4.61,1.33-6.93,2-1.09.29-2.23.42-3.33.72-3.44.94-6.86,1.93-10.29,2.87-1.7.47-3.41.86-5.11,1.33-2.31.64-4.62,1.31-6.93,2A1.86,1.86,0,0,1,77,94.13Z"/><path class="cls-118" d="M115.52,86c-.16,0-.31-.07-.49,0-2.06.69-4.19,1.16-6.29,1.72-3.42.92-6.81,2-10.24,2.84-4.56,1.16-9.06,2.55-13.61,3.74q-4.06,1.06-8.1,2.18a2.7,2.7,0,0,1-.56,0,.67.67,0,0,1,.08-.51,1.62,1.62,0,0,1,.78-.46c5.36-1.38,10.67-2.94,16-4.36,5-1.32,9.93-2.81,14.93-4.07,2.2-.55,4.37-1.21,6.56-1.77a.29.29,0,0,0,.15-.1A2.62,2.62,0,0,1,115.52,86Z"/><path class="cls-118" d="M114.75,85.23c-.29.52-.87.46-1.32.59-3.63,1-7.28,2-10.91,3-2.42.66-4.81,1.41-7.24,2-4.44,1.1-8.8,2.5-13.23,3.63l-5.23,1.34a3.36,3.36,0,0,0-.51.22l.16-.49a5.28,5.28,0,0,1,2.44-.8c1.53-.35,3-.8,4.55-1.22,3.27-.9,6.53-1.84,9.82-2.7,3.76-1,7.49-2.12,11.26-3.1,3.13-.81,6.24-1.66,9.33-2.6.34-.1.54.07.81.13A0,0,0,0,1,114.75,85.23Z"/><path class="cls-119" d="M96.12,123.88c2.61-1,5.33-1.59,8-2.37,1.35-.4,2.7-.8,4.07-1.12a24.1,24.1,0,0,1,3.26-.74c.24,0,.38-.39.66-.15a14.94,14.94,0,0,1-3.63,2.27A22.79,22.79,0,0,1,96.86,124C96.62,124,96.37,123.91,96.12,123.88Z"/><path class="cls-120" d="M100.05,78.49l-.42,0v.08l.73.07a3.18,3.18,0,0,1-1.28.53c-2.42.66-4.85,1.27-7.26,1.93-1.72.47-3.42,1-5.14,1.47a3.49,3.49,0,0,1-.72.17c-.47,0-.33-.18-.2-.42A22.67,22.67,0,0,1,96,78.53a3.28,3.28,0,0,1,.37,0,.68.68,0,0,0,.62,0A9.66,9.66,0,0,1,100.05,78.49Z"/><path class="cls-121" d="M97,130.63c-.13,0-.27.06-.39-.1l.43,0h3.06l.24,0v.1Z"/><path class="cls-122" d="M121.13,103.5v-.25c0-.2-.08-.42.1-.59l0,.25,0,.59C121.2,103.56,121.16,103.56,121.13,103.5Z"/><path class="cls-93" d="M121.13,103.5h.11a1.12,1.12,0,0,1-.1.69Z"/><path class="cls-115" d="M93.22,123.39c.22,0,.48-.11.65.14A1.35,1.35,0,0,1,93.22,123.39Z"/><path class="cls-114" d="M97,78.48a.41.41,0,0,1-.62,0Z"/></svg>