<svg id="Calque_1" data-name="Calque 1" xmlns="http://www.w3.org/2000/svg" viewBox="0 0 1982.47 1132.84"><defs><style>.cls-1{fill:none;stroke:#fff;stroke-width:2px;}</style></defs><title>Plan de travail 1brb</title><path d="M1083.45,558.2a95.92,95.92,0,1,0-160.71,70.66l-.09.09,3.1,2.62c.2.17.43.31.63.48,1.65,1.36,3.37,2.66,5.11,3.92l1.7,1.23c1.87,1.28,3.78,2.5,5.74,3.64l1.28.75c2.13,1.21,4.33,2.37,6.56,3.41l.5.24a96.57,96.57,0,0,0,23.2,7.34l.65.1q3.78.67,7.66,1l.94.09c2.57.2,5.18.34,7.82.34s5.19-.14,7.75-.34c.33,0,.65-.05,1-.07,2.57-.24,5.09-.58,7.6-1l.67-.12a94.51,94.51,0,0,0,22.86-7.17l.8-.36c2.16-1,4.26-2.11,6.32-3.27.51-.29,1-.58,1.53-.89,1.87-1.11,3.73-2.25,5.52-3.49.65-.43,1.28-.9,1.91-1.36,1.53-1.09,3-2.23,4.5-3.42.33-.25.68-.49,1-.75l3.18-2.67-.1-.08a95.62,95.62,0,0,0,31.42-70.92Zm-184.86,0a88.94,88.94,0,1,1,147.91,66.49,25.25,25.25,0,0,0-3.12-1.87l-29.53-14.76a7.75,7.75,0,0,1-4.29-6.95V590.78c.68-.84,1.41-1.79,2.15-2.85a70.77,70.77,0,0,0,9.13-17.86,12.66,12.66,0,0,0,7.27-11.48V546.23A12.77,12.77,0,0,0,1025,538V521.69c.17-1.81.82-12-6.57-20.45-6.42-7.32-16.83-11.06-30.93-11.06S963,493.91,956.6,501.23c-7.39,8.43-6.74,18.65-6.57,20.45V538a12.74,12.74,0,0,0-3.08,8.26v12.36a12.7,12.7,0,0,0,4.67,9.84,65,65,0,0,0,10.8,22.28v10.1a7.81,7.81,0,0,1-4.05,6.83l-27.59,15a24.32,24.32,0,0,0-2.62,1.67,88.76,88.76,0,0,1-29.55-66.15Zm0,0"/><path class="cls-1" d="M1744.94,178.32l14.59,14.59m-71.59,340.5L1702.53,548M762.94,807.61l14.59,14.59m967.41-629.29,14.59-14.59M1687.94,548l14.59-14.59M762.94,822.2l14.59-14.59"/></svg>