<svg id="Calque_1" data-name="Calque 1" xmlns="http://www.w3.org/2000/svg" xmlns:xlink="http://www.w3.org/1999/xlink" viewBox="0 0 1896.41 1005.5"><defs><style>.cls-1,.cls-46,.cls-47{fill:none;}.cls-2{fill:#fff;}.cls-3{clip-path:url(#clip-path);}.cls-4{fill:#fbfbfb;}.cls-5{fill:#f1f1f1;}.cls-6{fill:#969696;}.cls-7{fill:#989898;}.cls-8{fill:#e1e1e1;}.cls-9{fill:#919191;}.cls-10{fill:#606060;}.cls-11{fill:#777;}.cls-12{fill:#313131;}.cls-13{fill:#2a2a2a;}.cls-14{fill:#2d2d2d;}.cls-15{fill:#323232;}.cls-16{fill:#2c2c2c;}.cls-17{fill:#2b2b2b;}.cls-18{fill:#727272;}.cls-19{fill:#272727;}.cls-20{fill:#676767;}.cls-21{fill:#666;}.cls-22{fill:#6d6d6d;}.cls-23{fill:#656565;}.cls-24{fill:#686868;}.cls-25{fill:#6f6f6f;}.cls-26{fill:#707070;}.cls-27{fill:#696969;}.cls-28{fill:#6a6a6a;}.cls-29{fill:#6b6b6b;}.cls-30{fill:#787878;}.cls-31{fill:#fcfcfc;}.cls-32{fill:#f6f6f6;}.cls-33{fill:#fefefe;}.cls-34{fill:#f5f5f5;}.cls-35{fill:#e9e9e9;}.cls-36{fill:#efefef;}.cls-37{fill:#eee;}.cls-38{fill:#e7e7e7;}.cls-39{fill:#e3e3e3;}.cls-40{fill:#e6e6e6;}.cls-41{fill:#ededed;}.cls-42{fill:#ebebeb;}.cls-43{fill:#e5e5e5;}.cls-44{fill:#9b9b9b;}.cls-45{fill:#9a9a9a;}.cls-46{stroke:#000;stroke-width:5px;}.cls-47{stroke:#fff;stroke-width:10px;}</style><clipPath id="clip-path"><rect class="cls-1" x="2.5" y="183.27" width="1893.91" height="822.23"/></clipPath></defs><title>Plan de travail 1brb</title><polygon class="cls-2" points="2.5 2.5 2.5 1005.5 1896.41 1005.5 1896.41 2.5 2.5 2.5 2.5 2.5"/><g class="cls-3"><path class="cls-4" d="M949.45,1097.45q-473,0-946,.07c-2.78,0-3.41-.63-3.41-3.41Q.1,640.4,0,186.68c0-2.78.63-3.41,3.41-3.41q946.06.11,1892.09,0c2.78,0,3.41.63,3.41,3.41q-.11,453.71,0,907.43c0,2.78-.63,3.41-3.41,3.41q-473-.11-946-.07"/></g><path class="cls-5" d="M836.54,817.5H734.09c-7.86,0-9.26-1.42-9.27-9.33,0-12,0-24,0-36,0-6.35,1.8-8.13,8.23-8.13q103.55,0,207.11,0c6.37,0,8.14,1.8,8.15,8.21q0,18.56,0,37.12c0,6.34-1.81,8.12-8.22,8.12q-51.79,0-103.56,0"/><path class="cls-5" d="M1067.89,817.5q-46.41,0-92.81,0c-7.36,0-8.9-1.55-8.91-8.93q0-18.18,0-36.37c0-6.36,1.79-8.15,8.19-8.15q93.91,0,187.81,0c6.4,0,8.17,1.79,8.19,8.18q0,18.57,0,37.12c0,6.37-1.8,8.15-8.21,8.15q-47.15,0-94.27,0"/><path class="cls-6" d="M1785.19,204.15q31.53,0,63.06,0c5.44,0,6,.56,6,5.91,0,11.13,0,22.26,0,33.38,0,4.43-.77,5.22-5.21,5.22q-63.8,0-127.6,0c-4.48,0-5.24-.76-5.25-5.16q-.06-17.07,0-34.12c0-4.44.76-5.22,5.19-5.22q31.92,0,63.8,0"/><path class="cls-7" d="M822.27,522c6.43,0,12.88.19,19.29-.07,3.59-.15,4.76,1.3,5,4.64,1.86,29.68-18.1,48.57-42.46,50.7-26.5,2.31-51.43-15.72-56.28-41.74-5.17-27.7,14-55,41.89-59.53,15.08-2.48,28.73.66,40.81,10.26,2.65,2.1,3.15,3.73.31,6-2.29,1.87-4,5.05-6.56,5.8s-4.61-2.72-7-4.12c-12.11-7.06-28.86-6.22-40,2.15a37.38,37.38,0,0,0-13.9,39.57,36.41,36.41,0,0,0,29.26,27.21A37.4,37.4,0,0,0,817,559c7.9-4.25,12.59-10.9,14.47-19.66.62-2.87-.08-4.11-3.23-4.07-8.54.12-17.07-.06-25.61.09-3.07.06-4.41-.67-4.39-4.09.07-9.31-.08-9.31,9.15-9.31Z"/><path class="cls-7" d="M1044.24,517.82c-1.13-5.72,3-4.81,6.41-4.77,8.61.11,7.54-1,7.56,7.43q.09,26.52,0,53c0,7.67-1.45,15.07-6,21.46-7.28,10.22-17.83,12.8-29.52,11.56-10.73-1.15-18.51-7-23.71-16.41-1-1.84-.7-3,1.34-3.67.58-.19,1.13-.49,1.71-.71,2.41-.93,4.8-2.53,7.25-2.62,2.78-.11,3.12,3.42,4.79,5.13a18.06,18.06,0,0,0,20.11,4.42c7-2.75,9.64-8.44,10-15.5.1-1.95,1-4.66-.43-5.66-1.56-1.12-2.93,1.52-4.42,2.44-10.13,6.2-24.72,4-34.35-5.75-9.16-9.29-12.25-20.52-8.44-33.1s12.21-20.44,25.14-23a23.19,23.19,0,0,1,20.19,4.9c.55.45,1,1.17,2.31.86"/><path class="cls-8" d="M956.85,719.47H559.24q-20.93,0-31.53-18c-10.29-17.48-.31-42.81,19.17-48.5a43.8,43.8,0,0,1,12.43-1.85q398,0,796,0c20.26,0,35.74,15,35.66,34.36a34.46,34.46,0,0,1-33.13,33.93c-1.6,0-3.21,0-4.82,0Z"/><path class="cls-9" d="M989.38,544.74a32.43,32.43,0,0,1-33.14,32.77c-18.66-.23-32.69-14.55-32.6-33.28S938,511.5,956.76,511.57c18.6.08,32.7,14.41,32.62,33.17"/><path class="cls-10" d="M918.17,544.46a33,33,0,1,1-65.91-.14c.09-18.62,14.37-32.78,33-32.75s32.88,14.29,32.88,32.89"/><path class="cls-10" d="M1117.37,511.57c14.51-.08,24.67,9.85,29.24,22.76.89,2.53-1.08,2.63-2.42,3.19q-18.48,7.72-37,15.36c-4.16,1.73-4.22,2-1.34,5.52,6.61,8.14,19.67,8.23,27.12-.11,2.16-2.41,3.58-2.75,6-.71a38,38,0,0,0,5.53,3.71c1.82,1.06,2,2,.65,3.74-7.92,10.56-23.13,15.07-36.44,10.71s-22.17-16.84-22.13-31.46,8.48-27,21.38-31.17a26.71,26.71,0,0,1,9.44-1.53"/><path class="cls-11" d="M1067.16,527.17c0-14.84.06-29.67-.05-44.51,0-2.84.75-3.85,3.74-3.85,9.66,0,9.66-.1,9.66,9.37,0,27.57,0,55.13.07,82.71,0,3.51-.85,4.69-4.5,4.6-8.92-.21-8.92,0-8.92-9Z"/><path class="cls-12" d="M1506.89,227.5c0-5,.4-5.46,5.29-4.78a13.28,13.28,0,0,0,4.94,0c2-.47,3.42.58,3.59,2.7.17,2,.12,4,.11,5.93,0,.71.05,1.65-1,1.6s-1-.94-1-1.67c0-1.48,0-3-.05-4.46,0-1.15-.12-2.44-1.62-2.43s-2.13,1.08-2.18,2.49,0,3-.06,4.44c0,.71,0,1.67-1,1.62s-1-.92-1-1.66c-.05-1.37,0-2.73-.06-4.09-.05-1.21.1-2.79-1.62-2.79s-2.18,1.38-2.2,2.89c0,1.23,0,2.48,0,3.7,0,.78.27,2-1,1.92s-1-1.24-1-2.06c-.05-1.11,0-2.22,0-3.34"/><path class="cls-12" d="M1570,227.09c-1-3.23.58-4.79,4.38-4.45,2.13.18,4.21.65,6.41.07,1.71-.45,2.84.83,3,2.52.19,2.08.14,4.19.14,6.3,0,.59,0,1.32-.83,1.39-1.05.09-1.16-.73-1.18-1.48-.05-1.48,0-3-.05-4.45,0-1.27-.07-2.74-1.82-2.62-1.41.11-2,1.27-2,2.68s0,3-.05,4.46c0,.59,0,1.33-.82,1.4-1,.09-1.17-.71-1.19-1.46-.05-1.6,0-3.22-.07-4.82,0-1-.2-2.12-1.44-2.25a2.07,2.07,0,0,0-2.26,2c-.2,1.34,0,2.72-.16,4.07-.08.88.53,2.38-.87,2.42-1.71.06-1-1.59-1.16-2.57a26.81,26.81,0,0,1,0-3.19"/><path class="cls-13" d="M1498.68,226.23c5.38-1.29,6.45-.58,5.94,3.63a2.77,2.77,0,0,1-1.54,2.28c-2.73,1.58-7.35,1.23-9.39-.76s-2.53-6.51-1.06-9.37c1.78-3.41,4.86-3.33,8-3a3.77,3.77,0,0,1,2.8,1.63c.52.73,1.51,1.67.36,2.52s-1.37-.49-1.9-1.08c-1.93-2.12-4.17-2.17-6.22-.42-2.41,2.07-2.36,4.89-1,7.43,1.28,2.31,3.54,2.85,6.08,1.84,1-.39,1.92-.81,1.92-2,0-1.35-1.08-1.43-2.11-1.5-.7-.05-1.51.07-1.91-1.2"/><path class="cls-14" d="M1603.34,232.7c-3.38.67-6.19.41-6.9-3.47-.92-5.24,2.83-8.21,7.93-6.4,1,.33,1,1,1,1.74,0,3,.28,5.93-.33,8.87a4.62,4.62,0,0,1-7.14,2.86c-.66-.48-1.62-1.11-.89-2.06.62-.8,1.24-.05,1.86.34,2.09,1.32,3.63,1,4.52-1.88"/><path class="cls-15" d="M1612.17,233.14c-3,.06-4.71-1.34-5.06-4s.06-5.39,3.17-6.28c2.24-.64,4.52-.31,5.63,2.21.91,2,.92,3.69-2.1,3.48a8.67,8.67,0,0,0-1.85,0c-.86.16-2.12-.54-2.48.81-.09.41.44,1.09.85,1.49a2,2,0,0,0,2.69.39,7.15,7.15,0,0,0,.84-.72c.55-.47,1.14-1.25,1.84-.46s0,1.59-.66,2.17a3.87,3.87,0,0,1-2.87.94"/><path class="cls-16" d="M1594.36,229.14c-.46,1.1.76,3.77-.5,3.61-2.4-.29-4.81,1.44-7.08-.15a2.65,2.65,0,0,1-1.22-2.87,3.28,3.28,0,0,1,2.81-2.57c1.37-.35,4.09.28,3.5-1.83s-2.74-1.16-4.17.1a.81.81,0,0,1-1.28-.07c-.43-.62-.07-1.16.37-1.6,1.63-1.64,3.68-1.28,5.58-.92,1.74.34,2.06,1.89,2,3.49,0,.86,0,1.73,0,2.81"/><path class="cls-17" d="M1531.33,233c-1.58-.84-3.17-.05-4.8.09-1.91.17-3.58-.28-3.89-2.46s1-3.08,2.95-3.53c1.32-.31,4.07.42,3.43-1.81s-2.77-1.25-4.2.11a.92.92,0,0,1-1.32.07c-.65-.58-.2-1.14.2-1.58,1.54-1.75,3.61-1.4,5.54-1.12s2.13,1.76,2.1,3.38c-.05,2.19,0,4.38,0,6.84"/><path class="cls-16" d="M1622,222.64a3.81,3.81,0,0,1,2.77.75c.58.52,1.14,1.11.6,1.87s-1.06.22-1.58-.11a5.11,5.11,0,0,0-1.58-.88c-.69-.14-1.58-.18-1.87.7s.43,1.25,1.16,1.47c.47.14.92.4,1.39.49,1.67.36,3.19.9,3.33,2.89a2.75,2.75,0,0,1-1.86,2.91,5.5,5.5,0,0,1-5.28-.39c-.77-.56-1.32-1.41-.75-2.21.92-1.32,1.35.1,1.86.58a2.43,2.43,0,0,0,3,.56c.35-.19.78-.83.7-1.15-.35-1.33-1.64-1.24-2.65-1.56-1.66-.54-3.46-1-3.12-3.38s2-2.56,3.85-2.54"/><path class="cls-18" d="M1674.53,226.76c.39,2.65-1.38,2.54-3.24,2.64-2.59.14-2.58-1.42-2.67-3.31-.12-2.6,1.43-2.59,3.31-2.67,2.58-.11,2.81,1.38,2.6,3.34"/><path class="cls-18" d="M1683.43,226.46c.41,2.38-.8,2.92-3,3-2.32,0-2.95-.87-3-3.07s.88-3,3.06-3,3.23.79,2.86,3.05"/><path class="cls-18" d="M1662.35,229.32c-2.65.4-2.54-1.38-2.64-3.23-.13-2.61,1.42-2.59,3.31-2.68,2.6-.12,2.59,1.42,2.67,3.31.11,2.58-1.38,2.81-3.34,2.6"/><path class="cls-18" d="M1680.58,214.59c2.36-.41,2.91.81,3,3,0,2.31-.87,2.94-3.05,3s-3-.87-3-3.05.8-3.24,3.07-2.86"/><path class="cls-18" d="M1671.46,214.59c2.15-.33,3.19.4,3.16,2.77,0,2.08-.45,3.21-2.87,3.15-2.08-.05-3.23-.46-3.13-2.87.07-2,.37-3.46,2.84-3"/><path class="cls-18" d="M1683.4,235.26c.45,2.67-1,3-3,3.06-2.4.08-2.82-1-2.87-3.13-.06-2.41,1-2.87,3.13-2.87,2.31,0,3.24.86,2.75,2.93"/><path class="cls-18" d="M1665.61,217.34c.33,2.15-.38,3.2-2.76,3.16-2.09,0-3.22-.46-3.16-2.86.05-2.08.46-3.23,2.87-3.15,2,.07,3.47.38,3.05,2.85"/><path class="cls-18" d="M1674.49,235.27c.45,2.68-1,3-3,3.05-2.42.08-2.82-1.07-2.88-3.14-.06-2.41,1.07-2.86,3.15-2.86,2.32,0,3.22.89,2.74,2.94"/><path class="cls-18" d="M1665.57,235.17c.45,2.58-.76,3.13-2.91,3.17-2.32,0-3-.87-3-3.05s.87-3,3.06-3,3.37.66,2.82,2.85"/><path class="cls-19" d="M1538.1,225.58c.65-1.87-1.18-4.46,1-6.42,1.71,2,.55,4.4.82,6.6a23.35,23.35,0,0,1,0,4.42c-.08,1,.56,2.61-1,2.61-1.27,0-.77-1.55-.82-2.45-.09-1.47,0-2.94,0-4.76"/><path class="cls-19" d="M1566.69,219.21v13.65l-.85,0V219.23l.85,0"/><path class="cls-19" d="M1535,232.85a16.52,16.52,0,0,1-.21-9.94c1.29,3.29,1,6.62.21,9.94"/><path class="cls-20" d="M865.65,798.31c-5.78,0-8.87-3.31-8.53-8.26.36-5.13,4.12-8.2,9.05-7.35a5.49,5.49,0,0,1,4,2.38c.42.68,1.21,1.52.28,2.29s-1.53,0-2.11-.7c-2.06-2.46-4.56-2.57-6.83-.63s-2.3,4.92-1.09,7.5,3.8,2.9,6.4,2.21c1-.24,1.89-.73,1.94-1.94.06-1.47-1-1.42-2-1.54-.8-.1-2,.13-1.95-1.11s1.23-1.13,2-1c1.52.2,3.81-1.06,4.26,1.55.44,2.44.69,5.1-2.61,6-1.17.34-2.4.51-2.85.61"/><path class="cls-21" d="M751.38,790.4v-.74c0-7,2.32-8.59,9.18-6.46,2.72.84,4.29,4.33,2.23,6.09-2.9,2.47-.74,3.84.22,5.73.45.89,2.37,1.9.64,3-1.28.79-2.17-.57-2.88-1.62-.83-1.23-1.64-2.47-2.58-3.62a3.13,3.13,0,0,0-3.35-1.07c-1.5.4-1,1.78-1.1,2.8-.09.74,0,1.48-.1,2.22s-.36,1.23-1.1,1.25-1-.62-1.07-1.25c0-2.1,0-4.2,0-6.3Z"/><path class="cls-20" d="M903.75,798.18c-5.63.06-7.42-1.3-7.54-5.32-.06-2,.21-4,2.06-5.27,2.18-1.47,4.57-.23,6.85-.28.68,0,.79.85.79,1.47a91.16,91.16,0,0,1-.11,10c-.36,3.44-4.93,5.08-7.83,3-.8-.57-1.8-1.33-1.08-2.36s1.46-.11,2.2.35c1.89,1.19,3.41.92,4.65-1.59"/><path class="cls-20" d="M799.1,792c.11-2.37,1.08-4.65,4.25-5.07,2.55-.35,4.66.34,5.66,3,.69,1.89.43,3.17-2,3.15-.86,0-1.73,0-2.59,0s-2.14-.39-2.52.87c-.12.42.33,1.17.74,1.57a2.1,2.1,0,0,0,2.67.54c.1-.06.22-.1.32-.16.91-.51,1.45-1.86,2.82-1.3.56.22.56.73.34,1.23a3.88,3.88,0,0,1-3.11,2.3c-4.06.76-6.71-1.51-6.64-6.18"/><path class="cls-22" d="M788.19,790c0-1.86,0-3.7,0-5.55,0-.63.29-1.25,1-1.29s1.06.66,1,1.25c-.12,2.1.68,2.78,2.82,2.49,3-.39,4.29,1.34,4.31,4.17,0,1.86,0,3.7-.09,5.55,0,.63-.32,1.25-1.08,1.24s-.92-.71-1-1.31c-.08-1.73-.08-3.45-.15-5.18-.05-1.21-.56-2.28-1.83-2.45a2.32,2.32,0,0,0-2.64,2.07c-.27,1.43-.17,2.94-.33,4.4-.09.89.38,2.33-1,2.41s-1.14-1.35-1.18-2.25c-.07-1.86,0-3.7,0-5.55Z"/><path class="cls-23" d="M765.57,792.75c0-2.84.8-5.2,4-5.74,2.5-.43,4.71.12,5.77,2.78.78,2,.62,3.44-2,3.35q-1.29,0-2.59,0c-.82.05-1.83-.22-2.33.69-.32.61.12,1.21.56,1.62a2.37,2.37,0,0,0,2.65.78,4.91,4.91,0,0,0,.65-.35c.87-.58,1.47-1.87,2.81-1.2.52.26.41.87.21,1.32a3.76,3.76,0,0,1-2.83,2.14c-4,.92-6.78-1.28-6.82-5.43"/><path class="cls-24" d="M828.65,790.33c0-1.86,0-3.72,0-5.57,0-.59,0-1.35.77-1.49,1-.19,1.31.6,1.31,1.36,0,2,1.12,2.39,2.88,2.28,2.8-.15,4,1.43,4,4.12,0,1.62,0,3.23,0,4.83,0,.82.12,2-1.06,2s-1.07-1.12-1.12-1.92c-.07-1.61,0-3.23-.1-4.83a2.08,2.08,0,0,0-2.05-2.2,2.2,2.2,0,0,0-2.28,2c-.19,1.72-.16,3.45-.25,5.19,0,.74-.14,1.65-1,1.71s-1-.91-1-1.61c-.05-2,0-4,0-5.94"/><path class="cls-23" d="M917.64,798.29c-2.2.11-4-.74-4.75-2.81-.85-2.4-.94-4.9.83-7,1.45-1.75,3.47-1.87,5.45-1.34a3.93,3.93,0,0,1,3.17,4.4c-.23,2.29-2.2,1.36-3.51,1.63s-2.84-.65-3.6,1c-.15.34.34,1.17.73,1.54,1.41,1.3,2.7.77,3.88-.42.68-.68,1.58-1.13,2.17-.16s-.22,1.62-.89,2.19a4.83,4.83,0,0,1-3.47,1"/><path class="cls-23" d="M839.59,792.76c.09-2.65.75-5,3.72-5.69,2.31-.53,4.48-.15,5.79,2.14s.49,3.73-2.12,3.91c-.74.06-1.48,0-2.23,0s-1.84-.2-2.29.77a1.42,1.42,0,0,0,.59,1.62,2.27,2.27,0,0,0,2.68.65,5,5,0,0,0,.65-.36c.77-.54,1.31-1.62,2.52-1.14a.87.87,0,0,1,.41,1.23,3.52,3.52,0,0,1-2.41,2.13c-4,1.32-7.25-1.08-7.3-5.31"/><path class="cls-20" d="M878.14,786.89c3.29,0,5.3,2.14,5.33,5.69s-2,5.68-5.3,5.7-5.25-2-5.26-5.68,1.87-5.69,5.23-5.71"/><path class="cls-20" d="M894.89,792.44c.06,3.72-1.71,5.76-5.08,5.85s-5.29-1.82-5.35-5.53,1.65-5.79,5-5.86,5.33,1.91,5.39,5.54"/><path class="cls-20" d="M817.62,792.55c-.07-2.33.5-4.37,2.75-5.26a5.32,5.32,0,0,1,5.3.47c.81.61,1.59,1.52.92,2.48s-1.51.25-2.11-.43c-1.25-1.38-2.63-1.51-3.72,0a4.33,4.33,0,0,0,.17,5.77c1.25,1.41,2.63,1,3.71-.46.52-.69,1.09-1.66,2-.9s.15,1.84-.45,2.55c-1.57,1.91-3.71,1.92-5.74,1.16-2.43-.91-3-3.06-2.84-5.37"/><path class="cls-20" d="M777.39,792.78c-.07-4.8,3.66-7.52,7.43-5.39,1,.56,2.07,1.51,1.44,2.64-.76,1.35-1.61.22-2.29-.45-1.24-1.24-2.56-1.09-3.46.23a4.42,4.42,0,0,0,.17,5.77c1.28,1.44,2.64.9,3.68-.53.51-.72,1.12-1.64,2-.83s.14,1.84-.45,2.57c-1.46,1.8-3.5,1.83-5.42,1.25-2.49-.76-3.23-2.83-3.13-5.27"/><path class="cls-25" d="M811.12,792.6c0-5.38.71-6.27,4.51-5.65.6.1,1.31.09,1.41.88a1.11,1.11,0,0,1-.94,1.35c-3.31.48-2.45,3.09-2.74,5.18-.17,1.22.66,3.35-1,3.4s-1-2.1-1.19-3.31a10.15,10.15,0,0,1,0-1.85"/><path class="cls-20" d="M910.47,790.74c0,1.84,0,3.67,0,5.52,0,.7,0,1.57-1,1.66s-1.17-.76-1.17-1.48c0-3.93,0-7.86,0-11.78,0-.76.21-1.55,1.19-1.48s1,.93,1,1.68c0,2,0,3.93,0,5.89"/><path class="cls-24" d="M1037.61,790.42a24.22,24.22,0,0,0,0,3c.41,3.19-.35,5.13-4.15,5-3.35-.14-5.28-1.64-5.59-5-.31-3.58,1.38-6.15,4.53-6.31,1.87-.1,3.14-.29,3.07-2.52a1.09,1.09,0,0,1,1.07-1.25c1,.06,1,1,1,1.68,0,1.85,0,3.68,0,5.53Z"/><path class="cls-24" d="M1015.69,794.18c-.35,1,.86,3.56-.61,3.59-2.68,0-5.59,1.68-8.17-.35a2.86,2.86,0,0,1-.88-3c.42-1.87,1.89-2.44,3.52-2.8,1.16-.26,2.59.18,3.36-1.08.38-.62-.17-1.16-.74-1.47-1.48-.84-2.58-.08-3.57,1-.59.6-1.26.9-1.88.16s-.09-1.45.43-2c1.81-1.81,4.1-1.48,6.26-1,2,.39,2.19,2.11,2.27,3.76,0,1,0,2,0,3.26"/><path class="cls-20" d="M1071,794c-.45,1.17.91,3.75-.22,3.78-2.71.05-5.61,1.63-8.22-.18a3,3,0,0,1,.56-5.21,11.63,11.63,0,0,1,3.17-.86c.83-.19,1.83-.19,2-1.23.07-.33-.33-.9-.67-1.16a2.27,2.27,0,0,0-2.45-.08c-.94.41-1.29,2.09-2.71,1.33a1.4,1.4,0,0,1-.32-1.28c.55-1.44,1.76-1.92,3.2-2.11,4.63-.62,5.51.42,5.63,7"/><path class="cls-21" d="M1110.36,794.11c-.48,1.08,1,3.62-.29,3.64-2.7.05-5.59,1.64-8.2-.24a2.71,2.71,0,0,1-1-3c.4-1.84,1.81-2.49,3.45-2.91,1.22-.33,2.89.3,3.42-1.46.08-.27-.39-.91-.75-1.12-1.46-.83-2.56-.09-3.54,1-.45.5-1.06.74-1.61.24s-.38-1.38.13-2c1.76-2,4-1.56,6.23-1.21,1.82.28,2.18,1.77,2.19,3.37,0,1.11,0,2.21,0,3.6"/><path class="cls-24" d="M1139.43,798.29a4.57,4.57,0,0,1-4.9-3.15,6.53,6.53,0,0,1,.94-6.65c1.53-1.86,3.7-2,5.78-1.34a4,4,0,0,1,3,4.54c-.23,2-2.05,1.24-3.26,1.45s-2.83-.53-3.78.79c-.51.71.13,1.39.73,1.87,1.54,1.21,2.73.43,3.86-.69.58-.56,1.4-.88,2-.25.79.88-.1,1.6-.63,2.19a4.46,4.46,0,0,1-3.74,1.24"/><path class="cls-22" d="M1089.67,790.41c0-2,0-4,0-5.93a1.17,1.17,0,0,1,1-1.3c.81,0,1.08.65,1,1.24-.26,2.61,1.18,2.7,3.19,2.5,2.38-.23,3.76,1.08,3.88,3.44.11,2.09,0,4.19,0,6.28,0,.64-.31,1.26-1.06,1.26s-.94-.7-1-1.31c-.08-1.47-.07-3-.1-4.44s-.27-3.23-2.23-3.2c-1.76,0-2.38,1.54-2.51,3.14-.09.86,0,1.74-.1,2.59-.16,1.12.57,3.09-1,3.09-1.9,0-1.06-2.08-1.2-3.3a36.6,36.6,0,0,1,0-4.06Z"/><path class="cls-23" d="M1039.58,792.82c0-2.83.73-5.24,3.9-5.8,2.65-.49,4.92.14,5.94,3,.68,1.94.26,3.14-2.07,3.06-.86,0-1.72,0-2.58,0s-1.85-.25-2.37.63.17,1.41.72,1.88a2.18,2.18,0,0,0,2.7.47,2,2,0,0,1,.32-.18c.89-.53,1.46-1.87,2.82-1.25.52.23.48.82.28,1.28a3.78,3.78,0,0,1-3.13,2.24c-4,.69-6.47-1.38-6.53-5.41"/><path class="cls-26" d="M1000.31,789.62a53.8,53.8,0,0,1-.58,5.85c-.42,2.13-2.06,2.88-4.15,2.86-1.76,0-3.15-.56-3.84-2.28-.32-.81-.52-1.76.44-2.28s1.33.1,1.66.88a1.78,1.78,0,0,0,2.4,1.13c1.13-.41,1.2-1.46,1.22-2.46.05-2.71,0-5.42.09-8.13,0-1,0-2.19,1.45-2.06,1.08.11,1.1,1.19,1.12,2.05,0,1.47,0,3,0,4.43h.18"/><path class="cls-27" d="M1113,792.15c1.06-1.27-2-4.43,2-4.85,2.16-.21,4.67-1.39,6.16.87,1.78,2.74.8,6,.68,9,0,.51-.52.79-1.08.72s-.8-.54-.82-1c-.08-1.22-.07-2.46-.14-3.68-.1-1.78.38-4.26-2.31-4.16-2.47.1-2.21,2.5-2.27,4.33a6,6,0,0,1,0,1.12c-.27,1.19.67,3.27-1.22,3.28-1.54,0-.8-2-1-3.1a20.28,20.28,0,0,1,0-2.51"/><path class="cls-24" d="M1129.24,798.28c-2.43.09-4.14-.72-4.91-2.84-.94-2.58-.89-5.17,1-7.29,1.5-1.66,3.6-1.5,5.53-1,1.35.38,2.78,1.51,2,2.91s-1.78-.15-2.56-.75a2,2,0,0,0-3.2.47,4.34,4.34,0,0,0-.08,5.48,2.14,2.14,0,0,0,3.21.62c.87-.55,1-2.3,2.47-1.73.64.24.64,1,.42,1.6a3.61,3.61,0,0,1-3,2.42,8,8,0,0,1-.86.07"/><path class="cls-20" d="M1078.87,792.79c-.07-2.19.2-4.32,2.41-5.37a5.49,5.49,0,0,1,5.32.17c.89.54,1.73,1.49,1.16,2.44-.81,1.34-1.61.24-2.3-.44-1.24-1.24-2.55-1.11-3.46.21a4.41,4.41,0,0,0,.16,5.77c1.27,1.45,2.64.91,3.68-.52.51-.72,1.12-1.64,2-.83s.14,1.83-.44,2.57c-1.45,1.8-3.5,1.83-5.42,1.26-2.48-.76-3.23-2.83-3.13-5.27"/><path class="cls-28" d="M1059.65,790.42c0,2,0,3.93,0,5.88,0,.74-.15,1.57-1.09,1.64s-1.15-.81-1.16-1.52q-.06-5.89,0-11.76c0-.76.24-1.56,1.23-1.43s1,.94,1,1.69c0,1.84,0,3.66,0,5.51"/><path class="cls-29" d="M1020.54,792.92c-.64,1.64.91,4.7-1.17,4.74s-1.16-3-1.09-4.61c.07-1.91-1.15-5.42,1-5.42,2.34,0,.52,3.48,1.28,5.29"/><path class="cls-30" d="M1003.32,788.8c-1.15-2.07-1.88-3.67-.79-5.43a1,1,0,0,1,1.83.09c.85,1.77.33,3.39-1,5.34"/><path class="cls-4" d="M1735.95,225.87c.09-2.78.77-5.3,3.61-6.73a6.49,6.49,0,0,1,6.69.26c1.24.77,2.77,1.94,1.75,3.51-.8,1.23-2.26.91-3.49-.21-1.4-1.28-3.14-1.24-4.14.41a5,5,0,0,0,.4,6.2c1.24,1.4,2.75.89,3.8-.48s2.34-1.58,3.39-.36,0,2.42-.88,3.23a6.21,6.21,0,0,1-6.88,1.33c-3.19-1.27-4.27-3.88-4.25-7.17"/><path class="cls-31" d="M1784.75,227.66c.22-4.29,4-6.75,7.43-4.8,1.37.78,3,2.46,2.37,3.4-1.28,2,.38,4.62-1.47,6.19a5,5,0,0,1-5.59.47,5.14,5.14,0,0,1-2.74-5.26"/><path class="cls-31" d="M1823,227.93a5.56,5.56,0,0,1-5.65,5.58c-3.24-.05-5.4-2.36-5.36-5.73a5.41,5.41,0,0,1,5.52-5.61,5.55,5.55,0,0,1,5.49,5.76"/><path class="cls-31" d="M1755.36,233.51a5.32,5.32,0,0,1-5.67-5.46,5.5,5.5,0,1,1,5.67,5.46"/><path class="cls-4" d="M1774,228.19c0-5.16,1.94-6.76,6.56-5.87a3.38,3.38,0,0,1,3.05,3.23,12.81,12.81,0,0,1,.05,3c-.23,1.54.95,4.12-1.5,4.27-2.93.18-1.55-2.67-2-4.22-.3-1.07.41-2.92-1.38-2.91-1.54,0-1.36,1.76-1.65,2.92-.39,1.47.87,4.33-1.62,4.09-2.76-.26-.78-3.31-1.5-4.48"/><path class="cls-4" d="M1824.55,227.77c0-4.79,1.77-6.3,6.48-5.45a3.52,3.52,0,0,1,3.11,4.28c-.26,2.13,1.44,5.71-1.43,6.06-3.36.41-1.37-3.35-2.09-5.15-.31-.76-.09-1.92-1.28-1.92s-1.38,1-1.51,1.83c-.16,1.1-.16,2.22-.26,3.32s-.1,2.11-1.51,2.1-1.44-1.12-1.5-2.11,0-2,0-3"/><path class="cls-4" d="M1762.16,227.83c0-5,1.06-6,6.06-5.56,1.9.17,3.35,1.1,3.5,3.17.13,1.85.07,3.71.05,5.56,0,1.1-.43,2-1.71,1.95s-1.59-1-1.67-2c-.1-1.23-.11-2.47-.22-3.7-.06-.74-.22-1.59-1.15-1.63s-1.31.68-1.45,1.42c-.21,1.09-.23,2.21-.36,3.31s.17,2.47-1.46,2.53-1.5-1.33-1.57-2.41c-.07-.86,0-1.73,0-2.6"/><path class="cls-31" d="M1797.57,233.05c-1.67,0-2.45-.53-1.5-1.73,1.79-2.24,2.57-4.24.36-6.78-1.2-1.37.15-2.11,1.36-1.79,1.87.52,3.59,1,5.45,0a1.92,1.92,0,0,1,1.71.26c.75.63.16,1.44-.31,1.91-2.09,2-1.26,3.9.21,5.81.9,1.18,1.06,2.83-.87,2.18-2.44-.8-4.54-1.35-6.41.15"/><path class="cls-32" d="M1810.61,228c-.74,1.66,1.08,4.72-1.83,4.8s-1.79-3-1.77-4.63c0-1.82-1.3-5,1.63-5.13,3.18-.09,1.13,3.27,2,5"/><path class="cls-5" d="M1810.29,220.33c-.12,1.12-.69,1.47-1.51,1.46a1.4,1.4,0,0,1-1.57-1.59c.05-.89.7-1.25,1.51-1.24,1,0,1.57.53,1.57,1.37"/><path class="cls-33" d="M1027.9,524.73c10.92,0,19.11,10.49,17.49,22.44-1.35,10-7.93,16.82-16.47,17.15-13.09.51-22.26-12.23-18.48-25.7,2.41-8.6,9.07-13.89,17.46-13.89"/><path class="cls-33" d="M957.3,718H558.58c-19.31,0-34.07-15.18-33.49-34.42.48-16,15-30.47,31-30.91.86,0,1.73,0,2.6,0h797.08c15.93,0,28.24,9.32,32.59,24.66,5.42,19.15-9.8,40-29.71,40.66-1.61,0-3.22,0-4.83,0Z"/><path class="cls-33" d="M975.07,544.61c-.06,11.28-8.18,19.81-18.79,19.73-10.35-.07-18.32-8.69-18.33-19.79,0-11.39,7.92-19.84,18.58-19.83s18.59,8.55,18.54,19.89"/><path class="cls-33" d="M866.66,544.36c0-11.28,8.24-19.93,18.77-19.78s18.32,8.7,18.35,19.84-8.06,20-18.6,19.94-18.55-8.67-18.51-20"/><path class="cls-33" d="M1101.12,540.61c.62-10.64,11.61-18.58,21.55-15.67a13,13,0,0,1,4.57,2.33c3.51,2.79,3.38,3.88-.61,5.54-7.62,3.17-15.25,6.29-22.85,9.5-2,.84-3.14.82-2.66-1.7"/><path class="cls-34" d="M1603.35,227.66c.08,1.79-.5,3.47-2.37,3.59-2.14.12-2.79-1.61-2.8-3.53s.66-3.38,2.56-3.41,2.56,1.58,2.61,3.35"/><path class="cls-8" d="M1612.22,227c-1.14-.13-2.56.25-2.67-.92s1.07-1.85,2.28-1.87a2,2,0,0,1,2.21,1.54c.26,1.65-1.31.86-1.82,1.25"/><path class="cls-5" d="M1590.62,228.55c.74-.18,1.59-.33,1.57.75,0,1.44-1,2.1-2.36,2.25-1,.11-2.13-.09-2-1.4.15-1.64,1.65-1.43,2.8-1.6"/><path class="cls-35" d="M1529.47,229.44a2.89,2.89,0,0,1-3,2.15c-.91,0-1.84-.42-1.65-1.47.31-1.79,2-1.37,3.21-1.65.86-.2,1.4,0,1.47,1"/><path class="cls-36" d="M757.29,789.35c-2,0-3.59.13-3.54-2.32s1.83-2.12,3.34-2.13c1.75,0,3.86.11,3.8,2.35s-2.29,2-3.59,2.1"/><path class="cls-37" d="M898.55,792.52c0-1.9.5-3.7,2.65-3.65,1.86,0,2.58,1.68,2.59,3.44s-.52,3.59-2.76,3.59-2.47-1.66-2.48-3.38"/><path class="cls-38" d="M806.36,790.33c-.18,1.31-1.21,1.1-2,1.08s-2.23.38-2.06-1.23a1.78,1.78,0,0,1,1.91-1.41,2,2,0,0,1,2.14,1.56"/><path class="cls-39" d="M770.57,791.49c-.81-.15-2.07.24-2.1-.9s1.1-1.86,2.29-1.85c1,0,2.07.57,2,1.68,0,1.48-1.43.83-2.23,1.08"/><path class="cls-40" d="M917.55,791.5c-.78-.31-2.26.51-2.17-1.12a2,2,0,0,1,2.13-1.65,2,2,0,0,1,2.17,1.59c.15,1.62-1.34.87-2.13,1.18"/><path class="cls-40" d="M844.85,791.48c-.79-.25-2.22.5-2.27-1,0-1,1-1.69,2.06-1.74,1.21-.05,2.33.6,2.32,1.84s-1.29.76-2.11.91"/><path class="cls-36" d="M880.93,792.45c0,1.9-.46,3.68-2.56,3.87s-2.86-1.44-2.93-3.41.38-4,2.68-4.07c2.09-.08,2.77,1.71,2.81,3.61"/><path class="cls-41" d="M886.83,791.6c.24-1.42,1.09-3.07,3.17-2.73s2.77,2.23,2.55,4.24-1.15,3.52-3.22,3.19-2.69-2.23-2.5-4.7"/><path class="cls-41" d="M1030.23,792.72c.06-1.91.53-3.78,2.63-3.83,1.92-.05,2.47,1.66,2.51,3.42s-.11,3.82-2.31,3.94-2.68-1.74-2.83-3.53"/><path class="cls-42" d="M1013,794.4a2.7,2.7,0,0,1-2.57,2.08c-.95.12-1.89-.36-1.76-1.4.24-1.85,2.05-1.39,3.24-1.81.71-.25,1.16.16,1.09,1.13"/><path class="cls-42" d="M1068.54,794.41a2.69,2.69,0,0,1-2.63,2.07c-.92.09-1.76-.44-1.63-1.46.2-1.66,1.78-1.32,2.84-1.67.81-.25,1.42,0,1.42,1.06"/><path class="cls-42" d="M1105.17,796.53c-1-.14-1.77-.65-1.54-1.64.36-1.51,1.89-1.25,3-1.54.9-.24,1.43.27,1.21,1.18-.32,1.37-1.43,1.83-2.67,2"/><path class="cls-43" d="M1139.35,791.48c-.81-.23-2.24.35-2-1.23a2,2,0,0,1,2.18-1.51c1,.05,2.06.57,2.05,1.68,0,1.49-1.4.83-2.21,1.07"/><path class="cls-39" d="M1044.14,791.48c-.73-.13-1.79.06-1.66-1a2.06,2.06,0,0,1,2.39-1.75c1,.07,2.13.7,2,1.76-.27,1.53-1.78.75-2.69,1"/><path class="cls-44" d="M1817.43,225.49a2.14,2.14,0,0,1,1.88,2.28c0,1.36-.49,2.46-2.05,2.38-1.41-.06-1.61-1.22-1.61-2.37s.4-2.12,1.78-2.28"/><path class="cls-45" d="M1757,227.81c-.06,1.34-.45,2.41-1.87,2.35s-1.8-1.13-1.79-2.36.57-2.27,1.91-2.25,1.73,1.16,1.75,2.26"/><polygon class="cls-46" points="2.5 2.5 2.5 1005.5 1896.41 1005.5 1896.41 2.5 2.5 2.5 2.5 2.5"/><polygon points="0 0 0 183.27 1898.91 183.27 1898.91 0 0 0 0 0"/><path class="cls-47" d="M1760.67,45l80,80m-80,0,80-80"/></svg>