<svg id="Calque_1" data-name="Calque 1" xmlns="http://www.w3.org/2000/svg" xmlns:xlink="http://www.w3.org/1999/xlink" viewBox="0 0 2206.54 1821.54"><defs><style>.cls-1,.cls-11,.cls-12,.cls-2,.cls-3{fill:none;}.cls-11,.cls-2{stroke:#000;}.cls-2{stroke-miterlimit:10;stroke-width:50px;}.cls-12,.cls-3{stroke:#fff;}.cls-3{stroke-width:2px;}.cls-4{fill:#ffdfb8;}.cls-5{fill:#f4c892;}.cls-6{fill:#f4cfa6;}.cls-7{fill:#4d4d4d;}.cls-8{fill:#353535;}.cls-9{fill:#434443;}.cls-10{clip-path:url(#clip-path);}.cls-11{stroke-width:5px;}.cls-12{stroke-width:10px;}</style><clipPath id="clip-path"><rect class="cls-1" x="719.5" y="352.18" width="674.26" height="760.36"/></clipPath></defs><title>Plan de travail 1brb</title><line class="cls-2" x1="719.5" y1="876.16" x2="1976.52" y2="1693.04"/><polygon points="102.63 107.04 102.63 290.31 2001.54 290.31 2001.54 107.04 102.63 107.04 102.63 107.04"/><path class="cls-3" d="M1863.3,152.07l80,80m-80,0,80-80"/><polygon points="105.13 109.54 105.13 1112.54 1999.04 1112.54 1999.04 109.54 105.13 109.54 105.13 109.54"/><path class="cls-4" d="M1162.65,838.06l-19.6-3.94a29.79,29.79,0,0,1-23.92-29.2V738.5H990.91v67.14A29.79,29.79,0,0,1,967,834.84l-16.05,3.23V945.88h211.7V838.06Z"/><path class="cls-5" d="M1232.94,665.42h-28.13V583.85h28.13a26.24,26.24,0,0,1,26.24,26.24v29.08a26.24,26.24,0,0,1-26.24,26.24"/><path class="cls-5" d="M880.66,665.42h28.13V583.85H880.66a26.24,26.24,0,0,0-26.24,26.24v29.08a26.24,26.24,0,0,0,26.24,26.24"/><path class="cls-4" d="M1056.8,794.32h0A164.23,164.23,0,0,1,892.57,630.09V583.94a164.23,164.23,0,0,1,328.46,0v46.15A164.23,164.23,0,0,1,1056.8,794.32"/><path class="cls-6" d="M1056.8,419.72h0a164.62,164.62,0,0,0-39.88,4.89,164.29,164.29,0,0,1,124.35,159.34v46.15a164.28,164.28,0,0,1-124.35,159.34A164.34,164.34,0,0,0,1221,630.09V583.94A164.23,164.23,0,0,0,1056.8,419.72"/><path class="cls-7" d="M1283.78,871,1145,827.76a123.07,123.07,0,0,1-176.36,0L829.82,871A137.71,137.71,0,0,0,731,1003.14v88a12.69,12.69,0,0,0,12.69,12.69h626.2a12.69,12.69,0,0,0,12.69-12.69v-88A137.72,137.72,0,0,0,1283.78,871"/><path class="cls-8" d="M1283.78,871,1145,827.76a123.09,123.09,0,0,1-22,17.9L1204.38,871a137.72,137.72,0,0,1,98.82,132.11v100.72h66.7a12.69,12.69,0,0,0,12.69-12.69v-88A137.72,137.72,0,0,0,1283.78,871"/><path class="cls-7" d="M1056.8,363.35h0c-104,0-188.28,84.29-188.28,188.28v9.93h376.56v-9.93c0-104-84.3-188.28-188.28-188.28"/><path class="cls-8" d="M1056.8,363.35h0a189,189,0,0,0-39.33,4.13c85.1,18.09,148.95,93.66,148.95,184.15v9.93h78.66v-9.93c0-104-84.3-188.28-188.28-188.28"/><path class="cls-9" d="M1247.52,583.76a2127,2127,0,0,0-381.44,0,21.68,21.68,0,0,1-23.5-19.33l0-.44a21.71,21.71,0,0,1,19.65-23.88,2168.93,2168.93,0,0,1,389.24,0A21.72,21.72,0,0,1,1271.07,564c0,.15,0,.29,0,.44a21.67,21.67,0,0,1-23.5,19.33"/><path class="cls-9" d="M1249,786.09c-17.33-22.66-39.44-41.73-62-55.9a164.74,164.74,0,0,1-67.87,51.88v22.86a29.79,29.79,0,0,0,23.92,29.2l3.51.71-.28.07.18,0c-9.09,1.87-50.11,24-89.66,24s-80.57-22.12-89.67-24c0,0,22.53-3.58,23.74-28.39,0-.29,0-.56,0-.85V780.56A164.65,164.65,0,0,1,936.58,742l0,0q-5.25-5.64-10-11.76c-22.6,14.17-44.7,33.24-62,55.91-11.29,14.77-11.91,36.19-3.62,51.84,22.39,42.27,195,80.6,195.85,80.6s173.46-38.34,195.85-80.6c8.29-15.65,7.67-37.07-3.62-51.84"/><path class="cls-8" d="M1249,786.09c-17.33-22.66-39.44-41.73-62-55.9a165.48,165.48,0,0,1-38.21,35.94,218.75,218.75,0,0,1,17.33,20c11.29,14.77,11.91,36.19,3.61,51.84-22.38,42.27-111.79,80.15-112.64,80.45l-.41.13.11,0c.9,0,173.46-38.34,195.85-80.6,8.29-15.65,7.67-37.07-3.62-51.84"/><path class="cls-9" d="M1013.51,654.87H961.89a25.15,25.15,0,0,1-25.15-25.15v-21a4.11,4.11,0,0,1,4.11-4.11h72.67a25.15,25.15,0,0,1,0,50.31"/><path class="cls-8" d="M1013.51,604.57H959.78v50.2c.7.06,1.39.11,2.1.11h51.63a25.15,25.15,0,1,0,0-50.31"/><path class="cls-9" d="M1150.24,654.87h-51.62a25.15,25.15,0,1,1,0-50.31h72.67a4.1,4.1,0,0,1,4.1,4.11v21a25.15,25.15,0,0,1-25.15,25.15"/><g class="cls-10"><path class="cls-8" d="M1171.29,604.57h-72.68c-.84,0-1.67,0-2.5.13v50.05c.83.08,1.66.13,2.5.13h51.63a25.16,25.16,0,0,0,25.16-25.15v-21a4.11,4.11,0,0,0-4.11-4.11"/><path d="M1242.78,832.7c-2.14,4-9.06,12.3-31.36,23.79l-1.57.8-.39.2c-22.44,11.26-52,21.67-79.33,30.07-34,10.4-64.88,17.7-73.33,19.56-8.46-1.86-39.36-9.17-73.46-19.6-27.32-8.4-56.82-18.8-79.22-30l-.25-.13-1.73-.88C879.87,845,873,836.73,870.82,832.7c-6.6-12.46-5.5-29.21,2.62-39.82A223.7,223.7,0,0,1,924.33,745q2,2.28,4,4.45l.11.12a174.65,174.65,0,0,0,51.3,38.08v17.77c0,.18,0,.37,0,.55a22.56,22.56,0,0,1-1.42,7l0,0a17.72,17.72,0,0,1-.76,1.7c-.08.16-.17.31-.26.46-.19.34-.38.67-.59,1s-.4.59-.61.87l-.25.34a18.76,18.76,0,0,1-10.14,6.36l-.1,0-.19,0q-.51.07-1,.18h0c-.32.07-.63.16-.94.26l-.08,0c-.28.1-.56.2-.84.31l0,0c-.28.12-.56.25-.83.4l-.23.13c-.2.12-.4.23-.6.36l-.32.23-.45.32-.41.36-.31.26c-.15.14-.3.3-.44.45l-.22.23c-.17.19-.33.39-.48.59l-.12.15c-.17.22-.32.45-.47.69l-.07.1a11.17,11.17,0,0,0,6.37,16.64h0c.32.1.65.18,1,.25a16.25,16.25,0,0,1,1.64.52c2.16.76,5.67,2.19,8.86,3.49,10.85,4.41,27.54,11.19,46.29,15.67a153.45,153.45,0,0,0,35.15,4.55c31.74,0,64.05-13.15,81.41-20.21l1.61-.65c3.8-1.54,7.65-3.08,8.88-3.35a10.91,10.91,0,0,0,1.54-.43,10.12,10.12,0,0,0,1.43-.63,11,11,0,0,0,1-.63,11.16,11.16,0,0,0-4-20.24l-3.5-.7a18.67,18.67,0,0,1-14.95-18.25V789.38a175.92,175.92,0,0,0,59-44.34,223.61,223.61,0,0,1,50.88,47.84c8.12,10.62,9.22,27.37,2.63,39.82m-123.36.58c-17,6.62-40.22,14.39-62.61,14.41-2.9,0-5.82-.14-8.74-.38l-1.29-.13c-2.48-.23-5-.53-7.44-.91l-.78-.13q-3.95-.63-7.84-1.46l-1.33-.3c-1-.22-1.95-.43-2.91-.66l-.78-.2c-1.14-.28-2.28-.56-3.41-.86l-.18,0c-4.09-1.09-8.08-2.29-11.91-3.55l-.08,0c-6.45-2.11-12.46-4.37-17.81-6.48.63-.73,1.23-1.5,1.82-2.3l.13-.18c.54-.74,1.07-1.51,1.57-2.32l.15-.23q.73-1.2,1.4-2.49c.14-.27.27-.56.41-.84q.42-.87.81-1.78c.16-.38.32-.76.48-1.15.28-.71.54-1.44.78-2.19.18-.56.35-1.14.51-1.73.1-.38.22-.75.32-1.13l0-.16.06-.23c0-.19.08-.38.13-.57s.11-.52.17-.79a41.29,41.29,0,0,0,.94-7.38s0,0,0-.06,0-.15,0-.23c0-.39,0-.78,0-1.17v-8.85c.75.25,1.51.46,2.26.69l1.08.33q3.34,1,6.72,1.91l1.21.32q1.86.48,3.74.92l1.2.27q3.12.7,6.27,1.29l2.33.42c1,.18,2.08.36,3.13.52q2.41.37,4.84.67l2.5.29q2.05.23,4.12.41l1.72.15c1.92.15,3.86.26,5.8.34l1.63.06c2,.07,4.1.12,6.17.12s3.86,0,5.78-.11l1.68-.06q2.29-.1,4.55-.25l1.36-.09c1.75-.13,3.49-.3,5.23-.48l2.34-.27c1.08-.13,2.15-.27,3.22-.42l2.53-.36c1.52-.23,3-.49,4.54-.76,1-.19,2-.39,3.07-.59l2.13-.44q5.45-1.15,10.81-2.66l1.47-.42c.82-.24,1.64-.45,2.45-.7v7a40.94,40.94,0,0,0,11.46,28.36M907,661.77q-.18-.88-.36-1.76t-.37-1.93q-.21-1.11-.39-2.23c-.09-.53-.18-1-.26-1.58-.14-.87-.27-1.74-.39-2.61-.06-.43-.12-.86-.18-1.29-.13-1-.24-1.93-.35-2.9,0-.36-.09-.72-.12-1.08-.11-1-.2-2.06-.29-3.09,0-.32-.06-.64-.09-1-.08-1.05-.15-2.11-.21-3.17,0-.31,0-.61-.06-.92,0-.87-.08-1.73-.11-2.6h22.2A36.38,36.38,0,0,0,961.89,666h51.63a36.38,36.38,0,0,0,34.61-25.3H1064a36.39,36.39,0,0,0,34.61,25.3h51.62a36.38,36.38,0,0,0,34.61-25.3h24.62c0,.53-.06,1.07-.11,1.6,0,.31,0,.63-.08.94-.09,1-.18,2.07-.29,3.1,0,.36-.08.71-.13,1.07-.1,1-.22,1.94-.35,2.91l-.18,1.28q-.18,1.31-.39,2.62c-.08.53-.17,1.05-.26,1.58-.13.74-.26,1.49-.4,2.23s-.24,1.3-.37,1.94-.23,1.16-.36,1.74c-13.82,65.45-69.59,115.61-137.76,120.92l-.28,0c-1.11.08-2.22.15-3.33.21l-.6,0c-1,.05-2.09.09-3.13.12l-.77,0q-1.93,0-3.88,0C983.26,783.15,921.68,731,907,661.77m-15.37-91.35q-13.31,1-26.59,2.21a10.56,10.56,0,0,1-11.39-9.37l0-.43a10.54,10.54,0,0,1,9.53-11.59c2.23-.2,4.47-.37,6.71-.57h0a2167,2167,0,0,1,373.59,0c2.31.2,4.63.38,6.94.58a10.53,10.53,0,0,1,9.54,11.59l0,.44a10.55,10.55,0,0,1-11.39,9.37q-13.29-1.19-26.6-2.21h-.06c-3-.23-6-.44-9.06-.66q-10.35-.75-20.7-1.41c-4.31-.27-8.61-.55-12.92-.8-3.33-.19-6.66-.35-10-.53-4.19-.22-8.38-.44-12.57-.63-3.36-.16-6.73-.3-10.09-.44q-6.27-.26-12.54-.49l-10-.34q-6.39-.2-12.78-.36c-3.25-.08-6.49-.17-9.74-.23-4.54-.09-9.08-.16-13.62-.23-3,0-5.9-.1-8.86-.13q-9.21-.09-18.43-.1l-3.74,0-3.74,0q-9.21,0-18.43.1c-3,0-5.9.08-8.86.13-4.54.07-9.08.13-13.62.23-3.25.07-6.49.15-9.74.23q-6.39.16-12.78.36l-10,.34q-6.27.23-12.54.49-5,.21-10.09.44-6.29.29-12.58.63c-3.33.17-6.66.34-10,.53-4.31.25-8.62.52-12.93.79q-10.35.65-20.69,1.41c-3,.22-6,.42-9.07.66h-.06m-11,83.83a15.09,15.09,0,0,1-15.07-15.07V610.09A15.09,15.09,0,0,1,880.66,595h.74V630.1c0,1.84,0,3.67.1,5.5,0,.48,0,.95.06,1.42q.09,2.23.23,4.45c0,.38,0,.75.07,1.13q.4,5.65,1.16,11.2c0,.15,0,.3.06.45ZM1248,639.17a15.09,15.09,0,0,1-15.07,15.07h-2.41c0-.15,0-.3.06-.45q.75-5.55,1.16-11.2c0-.38,0-.75.07-1.12.09-1.48.17-3,.23-4.45,0-.47,0-.95,0-1.42.06-1.83.1-3.66.1-5.5V595h.74A15.09,15.09,0,0,1,1248,610.09v29.08Zm-220.51-9.45a14,14,0,0,1-14,14H961.89a14,14,0,0,1-14-14v-14h65.61a14,14,0,0,1,14,14m136.72-14v14a14,14,0,0,1-14,14h-51.63a14,14,0,0,1,0-28Zm7.07-22.34h-72.68a36.39,36.39,0,0,0-34.6,25.3h-15.89a36.39,36.39,0,0,0-34.61-25.3H940.84a15.29,15.29,0,0,0-15.28,15.28v4.93H903.74V591.94l4.82-.35,10.41-.71q6.17-.4,12.35-.76c3-.18,6-.36,9-.53q10.36-.57,20.72-1l5.55-.22q8.1-.34,16.2-.63l8.41-.27q6.77-.21,13.53-.38l8.77-.2q6.88-.14,13.76-.23l8.12-.11q9.35-.09,18.71-.1h5.41q9.35,0,18.7.1c2.71,0,5.42.07,8.13.11q6.87.1,13.75.23l8.78.2q6.77.17,13.52.38l8.42.27q8.1.28,16.18.63l5.57.23q10.36.47,20.71,1c3,.17,6,.35,9,.53q6.16.36,12.33.76l10.43.71,4.81.35v26.75h-23.29v-10a15.3,15.3,0,0,0-15.28-15.27M1364.1,914A147.8,147.8,0,0,0,1287,860.35l-30-9.34a43.43,43.43,0,0,0,5.45-7.85c10.65-20.11,8.75-46.37-4.62-63.86a245.93,245.93,0,0,0-55.12-52.09,174.9,174.9,0,0,0,23.15-50.63h7a37.45,37.45,0,0,0,37.41-37.42V610.09a37.1,37.1,0,0,0-5.27-19.12,32.88,32.88,0,0,0,17-25.38l.05-.44A32.84,32.84,0,0,0,1255,529.34a196.78,196.78,0,0,0-23.79-74.52,11.17,11.17,0,1,0-19.52,10.86,174.74,174.74,0,0,1,20.56,61.6q-10.52-.85-21.06-1.58l-1.06-.08q-9.81-.69-19.62-1.28l-3.16-.2q-9.39-.56-18.77-1l-3.83-.19q-9.3-.46-18.62-.84l-3.63-.14q-9.54-.37-19.1-.67l-2.38-.07q-64.17-1.88-128.42,0l-2.37.07q-9.56.29-19.12.67l-3.6.14q-9.33.38-18.66.84l-3.77.19q-9.42.48-18.83,1l-3.06.19q-9.88.6-19.74,1.29l-.83.06q-10.62.75-21.23,1.6c11.92-86.64,86.6-152.76,175.43-152.76,47.44,0,124.36,31.6,154,89.08,4.36,4.37,16.84,1.48,21.22-2.87s-29.55-45.48-33.9-49.85a198.09,198.09,0,0,0-141.3-58.7c-101.77,0-187.05,77.07-198.2,177.16a32.83,32.83,0,0,0-27.18,35.82l0,.43a32.92,32.92,0,0,0,17,25.41,37.2,37.2,0,0,0-5.25,19.09v29.08a37.46,37.46,0,0,0,37.42,37.42h7a174.73,174.73,0,0,0,23.15,50.63A246.06,246.06,0,0,0,855.7,779.3c-13.37,17.49-15.27,43.75-4.61,63.86a43.14,43.14,0,0,0,5.45,7.85l-29.95,9.34a149.77,149.77,0,0,0-101.7,104.33c-1.59,6-5.39,43.91-5,54.55,2.82.75,22.81,12.2,22.34,0-.72-18.69,3.45-45.65,4.29-48.78A127.3,127.3,0,0,1,833,881.75l.17-.05,44-13.72c1,.65,2.1,1.3,3.19,1.95l.39.23,2,1.17c19,11,45.78,22.09,80.78,33.39q4.23,1.36,8.48,2.69c20.62,6.45,40.25,11.79,55.42,15.62,16.35,4.17,27.84,6.68,29.34,6.68h0c1.65,0,14.42-2.81,32.31-7.41,14.3-3.65,32.11-8.54,50.81-14.34,3.41-1.05,6.83-2.13,10.23-3.23,35-11.29,61.77-22.36,80.75-33.37l2.2-1.29.18-.11c1.09-.65,2.17-1.3,3.21-2l44,13.72.17.05a126.54,126.54,0,0,1,90.8,121.39v88a1.52,1.52,0,0,1-1.52,1.52h-88.16v-109a11,11,0,1,0-22,0v109H853.91v-109a11,11,0,0,0-22.05,0v109H743.7a1.52,1.52,0,0,1-1.52-1.52v-71.94a11.17,11.17,0,0,0-22.34,0v71.94A23.88,23.88,0,0,0,743.7,1115h626.2a23.88,23.88,0,0,0,23.86-23.86v-88A147.84,147.84,0,0,0,1364.1,914"/></g><polygon class="cls-11" points="105.13 109.54 105.13 1112.54 1999.04 1112.54 1999.04 109.54 105.13 109.54 105.13 109.54"/><path class="cls-12" d="M1863.3,149.24l80,80m-80,0,80-80"/></svg>